Project Version="2.3.1" TempoMode="FamiStudio" Name="/home/gaetan/Public/Python/workspace/famistudio-midi-converter/resources/midi_from_original.mid" Author="<?>" Copyright=""
	Instrument Name="Duty 0"
	Instrument Name="Duty 1"
	Instrument Name="Duty 2"
	Instrument Name="Duty 3"
	Song Name="Song 3" Length="29" LoopPoint="0" PatternLength="16" BeatLength="4" NoteLength="16"
		Channel Type="Square1"
			Pattern Name="Pattern 1"
				Note Time="10" Value="C3" Instrument="Duty 0" Volume="14"
				Note Time="20" Value="C#3" Instrument="Duty 0" Volume="14"
				Note Time="21" Value="Stop"
				Note Time="30" Value="D#3" Instrument="Duty 0" Volume="14"
				Note Time="32" Value="Stop"
				Note Time="40" Value="E3" Instrument="Duty 0" Volume="14"
				Note Time="42" Value="Stop"
				Note Time="61" Value="C#3" Instrument="Duty 0" Volume="14"
				Note Time="64" Value="Stop"
				Note Time="71" Value="E3" Instrument="Duty 0" Volume="14"
				Note Time="72" Value="Stop"
				Note Time="81" Value="D#3" Instrument="Duty 0" Volume="14"
				Note Time="83" Value="Stop"
				Note Time="92" Value="F3" Instrument="Duty 0" Volume="14"
				Note Time="93" Value="Stop"
				Note Time="102" Value="G#3" Instrument="Duty 0" Volume="14"
				Note Time="103" Value="Stop"
				Note Time="112" Value="A#3" Instrument="Duty 0" Volume="14"
				Note Time="113" Value="Stop"
				Note Time="122" Value="D#4" Instrument="Duty 0" Volume="14"
				Note Time="124" Value="Stop"
				Note Time="143" Value="C#3" Instrument="Duty 0" Volume="14"
				Note Time="145" Value="Stop"
				Note Time="153" Value="E3" Instrument="Duty 0" Volume="14"
				Note Time="154" Value="Stop"
				Note Time="163" Value="D#3" Instrument="Duty 0" Volume="14"
				Note Time="165" Value="Stop"
				Note Time="174" Value="F3" Instrument="Duty 0" Volume="14"
				Note Time="175" Value="Stop"
				Note Time="184" Value="G#3" Instrument="Duty 0" Volume="14"
				Note Time="185" Value="Stop"
				Note Time="194" Value="A#3" Instrument="Duty 0" Volume="14"
				Note Time="195" Value="Stop"
				Note Time="204" Value="D#4" Instrument="Duty 0" Volume="14"
				Note Time="206" Value="Stop"
				Note Time="225" Value="G#3" Instrument="Duty 0" Volume="14"
				Note Time="227" Value="Stop"
				Note Time="235" Value="E4" Instrument="Duty 0" Volume="14"
				Note Time="236" Value="Stop"
				Note Time="245" Value="D#4" Instrument="Duty 0" Volume="14"
				Note Time="247" Value="Stop"
			Pattern Name="Pattern 2"
				Note Time="0" Value="C#4" Instrument="Duty 0" Volume="14"
				Note Time="1" Value="Stop"
				Note Time="20" Value="G#3" Instrument="Duty 0" Volume="14"
				Note Time="23" Value="Stop"
				Note Time="30" Value="C4" Instrument="Duty 0" Volume="14"
				Note Time="32" Value="Stop"
				Note Time="40" Value="A#3" Instrument="Duty 0" Volume="14"
				Note Time="42" Value="Stop"
				Note Time="61" Value="D#3" Instrument="Duty 0" Volume="14"
				Note Time="64" Value="Stop"
				Note Time="71" Value="G3" Instrument="Duty 0" Volume="14"
				Note Time="72" Value="Stop"
				Note Time="81" Value="F3" Instrument="Duty 0" Volume="14"
				Note Time="83" Value="Stop"
				Note Time="102" Value="C3" Instrument="Duty 0" Volume="14"
				Note Time="104" Value="Stop"
				Note Time="112" Value="C#3" Instrument="Duty 0" Volume="14"
				Note Time="113" Value="Stop"
				Note Time="122" Value="D#3" Instrument="Duty 0" Volume="14"
				Note Time="124" Value="Stop"
				Note Time="133" Value="F3" Instrument="Duty 0" Volume="14"
				Note Time="134" Value="Stop"
				Note Time="143" Value="G3" Instrument="Duty 0" Volume="14"
				Note Time="144" Value="Stop"
				Note Time="153" Value="G#3" Instrument="Duty 0" Volume="14"
				Note Time="154" Value="Stop"
				Note Time="163" Value="A#3" Instrument="Duty 0" Volume="14"
				Note Time="165" Value="Stop"
				Note Time="174" Value="D#4" Instrument="Duty 0" Volume="14"
				Note Time="175" Value="Stop"
				Note Time="194" Value="C#3" Instrument="Duty 0" Volume="14"
				Note Time="197" Value="Stop"
				Note Time="204" Value="E3" Instrument="Duty 0" Volume="14"
				Note Time="206" Value="Stop"
				Note Time="215" Value="D#3" Instrument="Duty 0" Volume="14"
				Note Time="216" Value="Stop"
				Note Time="225" Value="F3" Instrument="Duty 0" Volume="14"
				Note Time="226" Value="Stop"
				Note Time="245" Value="C3" Instrument="Duty 0" Volume="14"
				Note Time="248" Value="Stop"
			Pattern Name="Pattern 3"
				Note Time="0" Value="C#3" Instrument="Duty 0" Volume="14"
				Note Time="1" Value="Stop"
				Note Time="10" Value="D#3" Instrument="Duty 0" Volume="14"
				Note Time="11" Value="Stop"
				Note Time="20" Value="G#3" Instrument="Duty 0" Volume="14"
				Note Time="21" Value="Stop"
				Note Time="30" Value="A#3" Instrument="Duty 0" Volume="14"
				Note Time="32" Value="Stop"
				Note Time="40" Value="D#4" Instrument="Duty 0" Volume="14"
				Note Time="42" Value="Stop"
				Note Time="61" Value="C#3" Instrument="Duty 0" Volume="14"
				Note Time="64" Value="Stop"
				Note Time="71" Value="E3" Instrument="Duty 0" Volume="14"
				Note Time="72" Value="Stop"
				Note Time="81" Value="D#3" Instrument="Duty 0" Volume="14"
				Note Time="83" Value="Stop"
				Note Time="92" Value="F3" Instrument="Duty 0" Volume="14"
				Note Time="93" Value="Stop"
				Note Time="112" Value="C3" Instrument="Duty 0" Volume="14"
				Note Time="115" Value="Stop"
				Note Time="122" Value="C#3" Instrument="Duty 0" Volume="14"
				Note Time="124" Value="Stop"
				Note Time="133" Value="D#3" Instrument="Duty 0" Volume="14"
				Note Time="134" Value="Stop"
				Note Time="143" Value="G#3" Instrument="Duty 0" Volume="14"
				Note Time="144" Value="Stop"
				Note Time="153" Value="A#3" Instrument="Duty 0" Volume="14"
				Note Time="154" Value="Stop"
				Note Time="163" Value="D#4" Instrument="Duty 0" Volume="14"
				Note Time="165" Value="Stop"
				Note Time="184" Value="C#3" Instrument="Duty 0" Volume="14"
				Note Time="186" Value="Stop"
				Note Time="194" Value="E4" Instrument="Duty 0" Volume="14"
				Note Time="195" Value="Stop"
				Note Time="204" Value="D#4" Instrument="Duty 0" Volume="14"
				Note Time="206" Value="Stop"
				Note Time="215" Value="C#4" Instrument="Duty 0" Volume="14"
				Note Time="216" Value="Stop"
				Note Time="235" Value="G#3" Instrument="Duty 0" Volume="14"
				Note Time="238" Value="Stop"
				Note Time="245" Value="C4" Instrument="Duty 0" Volume="14"
				Note Time="247" Value="Stop"
			Pattern Name="Pattern 4"
				Note Time="0" Value="A#3" Instrument="Duty 0" Volume="14"
				Note Time="1" Value="Stop"
				Note Time="20" Value="D#3" Instrument="Duty 0" Volume="14"
				Note Time="23" Value="Stop"
				Note Time="30" Value="G3" Instrument="Duty 0" Volume="14"
				Note Time="32" Value="Stop"
				Note Time="40" Value="F3" Instrument="Duty 0" Volume="14"
				Note Time="42" Value="Stop"
				Note Time="61" Value="C3" Instrument="Duty 0" Volume="14"
				Note Time="64" Value="Stop"
				Note Time="71" Value="C#3" Instrument="Duty 0" Volume="14"
				Note Time="72" Value="Stop"
				Note Time="81" Value="D#3" Instrument="Duty 0" Volume="14"
				Note Time="83" Value="Stop"
				Note Time="92" Value="G#3" Instrument="Duty 0" Volume="14"
				Note Time="93" Value="Stop"
				Note Time="102" Value="A#3" Instrument="Duty 0" Volume="14"
				Note Time="103" Value="Stop"
				Note Time="112" Value="D#4" Instrument="Duty 0" Volume="14"
				Note Time="113" Value="Stop"
				Note Time="133" Value="G#3" Instrument="Duty 0" Volume="14"
				Note Time="135" Value="Stop"
				Note Time="143" Value="E4" Instrument="Duty 0" Volume="14"
				Note Time="144" Value="Stop"
				Note Time="153" Value="D#4" Instrument="Duty 0" Volume="14"
				Note Time="154" Value="Stop"
				Note Time="163" Value="C#4" Instrument="Duty 0" Volume="14"
				Note Time="165" Value="Stop"
				Note Time="184" Value="G#3" Instrument="Duty 0" Volume="14"
				Note Time="186" Value="Stop"
				Note Time="194" Value="C4" Instrument="Duty 0" Volume="14"
				Note Time="195" Value="Stop"
				Note Time="204" Value="A#3" Instrument="Duty 0" Volume="14"
				Note Time="206" Value="Stop"
				Note Time="225" Value="D#3" Instrument="Duty 0" Volume="14"
				Note Time="227" Value="Stop"
				Note Time="235" Value="G3" Instrument="Duty 0" Volume="14"
				Note Time="236" Value="Stop"
				Note Time="245" Value="F3" Instrument="Duty 0" Volume="14"
				Note Time="247" Value="Stop"
			Pattern Name="Pattern 5"
				Note Time="10" Value="C3" Instrument="Duty 0" Volume="14"
				Note Time="12" Value="Stop"
				Note Time="20" Value="C#3" Instrument="Duty 0" Volume="14"
				Note Time="21" Value="Stop"
				Note Time="30" Value="D#3" Instrument="Duty 0" Volume="14"
				Note Time="31" Value="Stop"
				Note Time="40" Value="F3" Instrument="Duty 0" Volume="14"
				Note Time="42" Value="Stop"
				Note Time="51" Value="G3" Instrument="Duty 0" Volume="14"
				Note Time="52" Value="Stop"
				Note Time="61" Value="A#3" Instrument="Duty 0" Volume="14"
				Note Time="62" Value="Stop"
				Note Time="71" Value="C4" Instrument="Duty 0" Volume="14"
				Note Time="72" Value="Stop"
				Note Time="81" Value="C#4" Instrument="Duty 0" Volume="14"
				Note Time="83" Value="Stop"
				Note Time="92" Value="D#4" Instrument="Duty 0" Volume="14"
				Note Time="93" Value="Stop"
				Note Time="112" Value="G#3" Instrument="Duty 0" Volume="14"
				Note Time="115" Value="Stop"
				Note Time="122" Value="C4" Instrument="Duty 0" Volume="14"
				Note Time="124" Value="Stop"
				Note Time="133" Value="G#3" Instrument="Duty 0" Volume="14"
				Note Time="134" Value="Stop"
				Note Time="153" Value="D#3" Instrument="Duty 0" Volume="14"
				Note Time="156" Value="Stop"
				Note Time="163" Value="C#3" Instrument="Duty 0" Volume="14"
				Note Time="165" Value="Stop"
				Note Time="174" Value="D#3" Instrument="Duty 0" Volume="14"
				Note Time="175" Value="Stop"
				Note Time="184" Value="G#3" Instrument="Duty 0" Volume="14"
				Note Time="185" Value="Stop"
				Note Time="194" Value="A#3" Instrument="Duty 0" Volume="14"
				Note Time="195" Value="Stop"
				Note Time="204" Value="D#4" Instrument="Duty 0" Volume="14"
				Note Time="206" Value="Stop"
				Note Time="225" Value="C#3" Instrument="Duty 0" Volume="14"
				Note Time="227" Value="Stop"
				Note Time="235" Value="E3" Instrument="Duty 0" Volume="14"
				Note Time="236" Value="Stop"
				Note Time="245" Value="D#3" Instrument="Duty 0" Volume="14"
				Note Time="247" Value="Stop"
				Note Time="255" Value="F3" Instrument="Duty 0" Volume="14"
			Pattern Name="Pattern 6"
				Note Time="1" Value="Stop"
				Note Time="20" Value="C3" Instrument="Duty 0" Volume="14"
				Note Time="23" Value="Stop"
				Note Time="30" Value="C#3" Instrument="Duty 0" Volume="14"
				Note Time="31" Value="Stop"
				Note Time="40" Value="D#3" Instrument="Duty 0" Volume="14"
				Note Time="42" Value="Stop"
				Note Time="51" Value="G#3" Instrument="Duty 0" Volume="14"
				Note Time="52" Value="Stop"
				Note Time="61" Value="A#3" Instrument="Duty 0" Volume="14"
				Note Time="62" Value="Stop"
				Note Time="71" Value="D#4" Instrument="Duty 0" Volume="14"
				Note Time="72" Value="Stop"
				Note Time="92" Value="C#3" Instrument="Duty 0" Volume="14"
				Note Time="94" Value="Stop"
				Note Time="102" Value="E3" Instrument="Duty 0" Volume="14"
				Note Time="103" Value="Stop"
				Note Time="112" Value="D#3" Instrument="Duty 0" Volume="14"
				Note Time="113" Value="Stop"
				Note Time="122" Value="F3" Instrument="Duty 0" Volume="14"
				Note Time="124" Value="Stop"
				Note Time="143" Value="C3" Instrument="Duty 0" Volume="14"
				Note Time="145" Value="Stop"
				Note Time="153" Value="C#3" Instrument="Duty 0" Volume="14"
				Note Time="154" Value="Stop"
				Note Time="163" Value="D#3" Instrument="Duty 0" Volume="14"
				Note Time="165" Value="Stop"
				Note Time="174" Value="G#3" Instrument="Duty 0" Volume="14"
				Note Time="175" Value="Stop"
				Note Time="184" Value="A#3" Instrument="Duty 0" Volume="14"
				Note Time="185" Value="Stop"
				Note Time="194" Value="D#4" Instrument="Duty 0" Volume="14"
				Note Time="195" Value="Stop"
				Note Time="215" Value="G#3" Instrument="Duty 0" Volume="14"
				Note Time="217" Value="Stop"
				Note Time="225" Value="E4" Instrument="Duty 0" Volume="14"
				Note Time="226" Value="Stop"
				Note Time="235" Value="D#4" Instrument="Duty 0" Volume="14"
				Note Time="236" Value="Stop"
				Note Time="245" Value="C#4" Instrument="Duty 0" Volume="14"
				Note Time="247" Value="Stop"
			Pattern Name="Pattern 7"
				Note Time="10" Value="D#3" Instrument="Duty 0" Volume="14"
				Note Time="12" Value="Stop"
				Note Time="20" Value="G3" Instrument="Duty 0" Volume="14"
				Note Time="21" Value="Stop"
				Note Time="30" Value="F3" Instrument="Duty 0" Volume="14"
				Note Time="31" Value="Stop"
				Note Time="51" Value="C3" Instrument="Duty 0" Volume="14"
				Note Time="53" Value="Stop"
				Note Time="61" Value="C#3" Instrument="Duty 0" Volume="14"
				Note Time="62" Value="Stop"
				Note Time="71" Value="D#3" Instrument="Duty 0" Volume="14"
				Note Time="72" Value="Stop"
				Note Time="81" Value="G#3" Instrument="Duty 0" Volume="14"
				Note Time="83" Value="Stop"
				Note Time="92" Value="A#3" Instrument="Duty 0" Volume="14"
				Note Time="93" Value="Stop"
				Note Time="102" Value="D#4" Instrument="Duty 0" Volume="14"
				Note Time="103" Value="Stop"
				Note Time="122" Value="C#3" Instrument="Duty 0" Volume="14"
				Note Time="125" Value="Stop"
				Note Time="133" Value="E3" Instrument="Duty 0" Volume="14"
				Note Time="134" Value="Stop"
				Note Time="143" Value="D#3" Instrument="Duty 0" Volume="14"
				Note Time="144" Value="Stop"
				Note Time="153" Value="F3" Instrument="Duty 0" Volume="14"
				Note Time="154" Value="Stop"
				Note Time="174" Value="C3" Instrument="Duty 0" Volume="14"
				Note Time="176" Value="Stop"
				Note Time="184" Value="C#3" Instrument="Duty 0" Volume="14"
				Note Time="185" Value="Stop"
				Note Time="194" Value="D#3" Instrument="Duty 0" Volume="14"
				Note Time="195" Value="Stop"
				Note Time="204" Value="G#3" Instrument="Duty 0" Volume="14"
				Note Time="206" Value="Stop"
				Note Time="215" Value="A#3" Instrument="Duty 0" Volume="14"
				Note Time="216" Value="Stop"
				Note Time="225" Value="D#4" Instrument="Duty 0" Volume="14"
				Note Time="226" Value="Stop"
				Note Time="245" Value="C#3" Instrument="Duty 0" Volume="14"
				Note Time="248" Value="Stop"
				Note Time="255" Value="E4" Instrument="Duty 0" Volume="14"
			Pattern Name="Pattern 8"
				Note Time="1" Value="Stop"
				Note Time="10" Value="D#4" Instrument="Duty 0" Volume="14"
				Note Time="11" Value="Stop"
				Note Time="20" Value="C#4" Instrument="Duty 0" Volume="14"
				Note Time="21" Value="Stop"
				Note Time="40" Value="G#3" Instrument="Duty 0" Volume="14"
				Note Time="43" Value="Stop"
				Note Time="51" Value="C4" Instrument="Duty 0" Volume="14"
				Note Time="52" Value="Stop"
				Note Time="61" Value="A#3" Instrument="Duty 0" Volume="14"
				Note Time="62" Value="Stop"
				Note Time="81" Value="D#3" Instrument="Duty 0" Volume="14"
				Note Time="84" Value="Stop"
				Note Time="92" Value="C#3" Instrument="Duty 0" Volume="14"
				Note Time="93" Value="Stop"
				Note Time="102" Value="D#3" Instrument="Duty 0" Volume="14"
				Note Time="103" Value="Stop"
				Note Time="112" Value="G#3" Instrument="Duty 0" Volume="14"
				Note Time="113" Value="Stop"
				Note Time="122" Value="A#3" Instrument="Duty 0" Volume="14"
				Note Time="124" Value="Stop"
				Note Time="133" Value="D#4" Instrument="Duty 0" Volume="14"
				Note Time="134" Value="Stop"
				Note Time="153" Value="G#3" Instrument="Duty 0" Volume="14"
				Note Time="156" Value="Stop"
				Note Time="163" Value="E4" Instrument="Duty 0" Volume="14"
				Note Time="165" Value="Stop"
				Note Time="174" Value="D#4" Instrument="Duty 0" Volume="14"
				Note Time="175" Value="Stop"
				Note Time="184" Value="C#4" Instrument="Duty 0" Volume="14"
				Note Time="185" Value="Stop"
				Note Time="204" Value="G#3" Instrument="Duty 0" Volume="14"
				Note Time="207" Value="Stop"
				Note Time="215" Value="C4" Instrument="Duty 0" Volume="14"
				Note Time="216" Value="Stop"
				Note Time="225" Value="A#3" Instrument="Duty 0" Volume="14"
				Note Time="226" Value="Stop"
				Note Time="245" Value="D#3" Instrument="Duty 0" Volume="14"
				Note Time="248" Value="Stop"
				Note Time="255" Value="G3" Instrument="Duty 0" Volume="14"
			Pattern Name="Pattern 9"
				Note Time="1" Value="Stop"
				Note Time="10" Value="F3" Instrument="Duty 0" Volume="14"
				Note Time="11" Value="Stop"
				Note Time="30" Value="C3" Instrument="Duty 0" Volume="14"
				Note Time="33" Value="Stop"
				Note Time="40" Value="C#3" Instrument="Duty 0" Volume="14"
				Note Time="42" Value="Stop"
				Note Time="51" Value="D#3" Instrument="Duty 0" Volume="14"
				Note Time="52" Value="Stop"
				Note Time="61" Value="G#3" Instrument="Duty 0" Volume="14"
				Note Time="62" Value="Stop"
				Note Time="71" Value="A#3" Instrument="Duty 0" Volume="14"
				Note Time="72" Value="Stop"
				Note Time="81" Value="D#4" Instrument="Duty 0" Volume="14"
				Note Time="83" Value="Stop"
				Note Time="102" Value="C#3" Instrument="Duty 0" Volume="14"
				Note Time="104" Value="Stop"
				Note Time="112" Value="E3" Instrument="Duty 0" Volume="14"
				Note Time="113" Value="Stop"
				Note Time="122" Value="D#3" Instrument="Duty 0" Volume="14"
				Note Time="124" Value="Stop"
				Note Time="133" Value="F3" Instrument="Duty 0" Volume="14"
				Note Time="134" Value="Stop"
				Note Time="153" Value="C3" Instrument="Duty 0" Volume="14"
				Note Time="156" Value="Stop"
				Note Time="163" Value="C#3" Instrument="Duty 0" Volume="14"
				Note Time="165" Value="Stop"
				Note Time="174" Value="D#3" Instrument="Duty 0" Volume="14"
				Note Time="175" Value="Stop"
				Note Time="184" Value="G#3" Instrument="Duty 0" Volume="14"
				Note Time="185" Value="Stop"
				Note Time="194" Value="A#3" Instrument="Duty 0" Volume="14"
				Note Time="195" Value="Stop"
				Note Time="204" Value="D#4" Instrument="Duty 0" Volume="14"
				Note Time="206" Value="Stop"
			PatternInstance Time="0" Pattern="Pattern 1"
			PatternInstance Time="1" Pattern="Pattern 2"
			PatternInstance Time="2" Pattern="Pattern 3"
			PatternInstance Time="3" Pattern="Pattern 4"
			PatternInstance Time="4" Pattern="Pattern 5"
			PatternInstance Time="5" Pattern="Pattern 6"
			PatternInstance Time="6" Pattern="Pattern 7"
			PatternInstance Time="7" Pattern="Pattern 8"
			PatternInstance Time="8" Pattern="Pattern 9"
		Channel Type="Square2"
			Pattern Name="Pattern 1"
				Note Time="10" Value="G#3" Instrument="Duty 1" Volume="12"
				Note Time="20" Value="A#3" Instrument="Duty 1" Volume="12"
				Note Time="21" Value="Stop"
				Note Time="30" Value="C4" Instrument="Duty 1" Volume="12"
				Note Time="32" Value="Stop"
				Note Time="40" Value="C#4" Instrument="Duty 1" Volume="12"
				Note Time="42" Value="Stop"
				Note Time="61" Value="A#3" Instrument="Duty 1" Volume="12"
				Note Time="64" Value="Stop"
				Note Time="71" Value="C#4" Instrument="Duty 1" Volume="12"
				Note Time="72" Value="Stop"
				Note Time="81" Value="C4" Instrument="Duty 1" Volume="12"
				Note Time="83" Value="Stop"
				Note Time="92" Value="C#4" Instrument="Duty 1" Volume="12"
				Note Time="93" Value="Stop"
				Note Time="102" Value="F4" Instrument="Duty 1" Volume="12"
				Note Time="103" Value="Stop"
				Note Time="112" Value="G4" Instrument="Duty 1" Volume="12"
				Note Time="113" Value="Stop"
				Note Time="122" Value="G#4" Instrument="Duty 1" Volume="12"
				Note Time="124" Value="Stop"
				Note Time="143" Value="A#3" Instrument="Duty 1" Volume="12"
				Note Time="145" Value="Stop"
				Note Time="153" Value="C#4" Instrument="Duty 1" Volume="12"
				Note Time="154" Value="Stop"
				Note Time="163" Value="C4" Instrument="Duty 1" Volume="12"
				Note Time="165" Value="Stop"
				Note Time="174" Value="C#4" Instrument="Duty 1" Volume="12"
				Note Time="175" Value="Stop"
				Note Time="184" Value="F4" Instrument="Duty 1" Volume="12"
				Note Time="185" Value="Stop"
				Note Time="194" Value="G4" Instrument="Duty 1" Volume="12"
				Note Time="195" Value="Stop"
				Note Time="204" Value="G#4" Instrument="Duty 1" Volume="12"
				Note Time="206" Value="Stop"
				Note Time="225" Value="C#4" Instrument="Duty 1" Volume="12"
				Note Time="227" Value="Stop"
				Note Time="235" Value="G#4" Instrument="Duty 1" Volume="12"
				Note Time="236" Value="Stop"
				Note Time="245" Value="F#4" Instrument="Duty 1" Volume="12"
				Note Time="247" Value="Stop"
			Pattern Name="Pattern 2"
				Note Time="0" Value="E4" Instrument="Duty 1" Volume="12"
				Note Time="1" Value="Stop"
				Note Time="20" Value="C#4" Instrument="Duty 1" Volume="12"
				Note Time="23" Value="Stop"
				Note Time="30" Value="D#4" Instrument="Duty 1" Volume="12"
				Note Time="32" Value="Stop"
				Note Time="40" Value="C#4" Instrument="Duty 1" Volume="12"
				Note Time="42" Value="Stop"
				Note Time="61" Value="A#3" Instrument="Duty 1" Volume="12"
				Note Time="64" Value="Stop"
				Note Time="71" Value="D#4" Instrument="Duty 1" Volume="12"
				Note Time="72" Value="Stop"
				Note Time="81" Value="C#4" Instrument="Duty 1" Volume="12"
				Note Time="83" Value="Stop"
				Note Time="102" Value="G#3" Instrument="Duty 1" Volume="12"
				Note Time="104" Value="Stop"
				Note Time="112" Value="A#3" Instrument="Duty 1" Volume="12"
				Note Time="113" Value="Stop"
				Note Time="122" Value="C4" Instrument="Duty 1" Volume="12"
				Note Time="124" Value="Stop"
				Note Time="133" Value="C#4" Instrument="Duty 1" Volume="12"
				Note Time="134" Value="Stop"
				Note Time="143" Value="D#4" Instrument="Duty 1" Volume="12"
				Note Time="144" Value="Stop"
				Note Time="153" Value="F4" Instrument="Duty 1" Volume="12"
				Note Time="154" Value="Stop"
				Note Time="163" Value="G4" Instrument="Duty 1" Volume="12"
				Note Time="165" Value="Stop"
				Note Time="174" Value="G#4" Instrument="Duty 1" Volume="12"
				Note Time="175" Value="Stop"
				Note Time="194" Value="A#3" Instrument="Duty 1" Volume="12"
				Note Time="197" Value="Stop"
				Note Time="204" Value="C#4" Instrument="Duty 1" Volume="12"
				Note Time="206" Value="Stop"
				Note Time="215" Value="C4" Instrument="Duty 1" Volume="12"
				Note Time="216" Value="Stop"
				Note Time="225" Value="C#4" Instrument="Duty 1" Volume="12"
				Note Time="226" Value="Stop"
				Note Time="245" Value="G#3" Instrument="Duty 1" Volume="12"
				Note Time="248" Value="Stop"
			Pattern Name="Pattern 3"
				Note Time="0" Value="A#3" Instrument="Duty 1" Volume="12"
				Note Time="1" Value="Stop"
				Note Time="10" Value="C4" Instrument="Duty 1" Volume="12"
				Note Time="11" Value="Stop"
				Note Time="20" Value="F4" Instrument="Duty 1" Volume="12"
				Note Time="21" Value="Stop"
				Note Time="30" Value="G4" Instrument="Duty 1" Volume="12"
				Note Time="32" Value="Stop"
				Note Time="40" Value="G#4" Instrument="Duty 1" Volume="12"
				Note Time="42" Value="Stop"
				Note Time="61" Value="A#3" Instrument="Duty 1" Volume="12"
				Note Time="64" Value="Stop"
				Note Time="71" Value="C#4" Instrument="Duty 1" Volume="12"
				Note Time="72" Value="Stop"
				Note Time="81" Value="C4" Instrument="Duty 1" Volume="12"
				Note Time="83" Value="Stop"
				Note Time="92" Value="C#4" Instrument="Duty 1" Volume="12"
				Note Time="93" Value="Stop"
				Note Time="112" Value="G#3" Instrument="Duty 1" Volume="12"
				Note Time="115" Value="Stop"
				Note Time="122" Value="A#3" Instrument="Duty 1" Volume="12"
				Note Time="124" Value="Stop"
				Note Time="133" Value="C4" Instrument="Duty 1" Volume="12"
				Note Time="134" Value="Stop"
				Note Time="143" Value="F4" Instrument="Duty 1" Volume="12"
				Note Time="144" Value="Stop"
				Note Time="153" Value="G4" Instrument="Duty 1" Volume="12"
				Note Time="154" Value="Stop"
				Note Time="163" Value="G#4" Instrument="Duty 1" Volume="12"
				Note Time="165" Value="Stop"
				Note Time="184" Value="A#3" Instrument="Duty 1" Volume="12"
				Note Time="186" Value="Stop"
				Note Time="194" Value="G#4" Instrument="Duty 1" Volume="12"
				Note Time="195" Value="Stop"
				Note Time="204" Value="F#4" Instrument="Duty 1" Volume="12"
				Note Time="206" Value="Stop"
				Note Time="215" Value="E4" Instrument="Duty 1" Volume="12"
				Note Time="216" Value="Stop"
				Note Time="235" Value="C#4" Instrument="Duty 1" Volume="12"
				Note Time="238" Value="Stop"
				Note Time="245" Value="D#4" Instrument="Duty 1" Volume="12"
				Note Time="247" Value="Stop"
			Pattern Name="Pattern 4"
				Note Time="0" Value="C#4" Instrument="Duty 1" Volume="12"
				Note Time="1" Value="Stop"
				Note Time="20" Value="A#3" Instrument="Duty 1" Volume="12"
				Note Time="23" Value="Stop"
				Note Time="30" Value="D#4" Instrument="Duty 1" Volume="12"
				Note Time="32" Value="Stop"
				Note Time="40" Value="C#4" Instrument="Duty 1" Volume="12"
				Note Time="42" Value="Stop"
				Note Time="61" Value="G#3" Instrument="Duty 1" Volume="12"
				Note Time="64" Value="Stop"
				Note Time="71" Value="A#3" Instrument="Duty 1" Volume="12"
				Note Time="72" Value="Stop"
				Note Time="81" Value="C4" Instrument="Duty 1" Volume="12"
				Note Time="83" Value="Stop"
				Note Time="92" Value="F4" Instrument="Duty 1" Volume="12"
				Note Time="93" Value="Stop"
				Note Time="102" Value="G4" Instrument="Duty 1" Volume="12"
				Note Time="103" Value="Stop"
				Note Time="112" Value="G#4" Instrument="Duty 1" Volume="12"
				Note Time="113" Value="Stop"
				Note Time="133" Value="C#4" Instrument="Duty 1" Volume="12"
				Note Time="135" Value="Stop"
				Note Time="143" Value="G#4" Instrument="Duty 1" Volume="12"
				Note Time="144" Value="Stop"
				Note Time="153" Value="F#4" Instrument="Duty 1" Volume="12"
				Note Time="154" Value="Stop"
				Note Time="163" Value="E4" Instrument="Duty 1" Volume="12"
				Note Time="165" Value="Stop"
				Note Time="184" Value="C#4" Instrument="Duty 1" Volume="12"
				Note Time="186" Value="Stop"
				Note Time="194" Value="D#4" Instrument="Duty 1" Volume="12"
				Note Time="195" Value="Stop"
				Note Time="204" Value="C#4" Instrument="Duty 1" Volume="12"
				Note Time="206" Value="Stop"
				Note Time="225" Value="A#3" Instrument="Duty 1" Volume="12"
				Note Time="227" Value="Stop"
				Note Time="235" Value="D#4" Instrument="Duty 1" Volume="12"
				Note Time="236" Value="Stop"
				Note Time="245" Value="C#4" Instrument="Duty 1" Volume="12"
				Note Time="247" Value="Stop"
			Pattern Name="Pattern 5"
				Note Time="10" Value="G#3" Instrument="Duty 1" Volume="12"
				Note Time="12" Value="Stop"
				Note Time="20" Value="A#3" Instrument="Duty 1" Volume="12"
				Note Time="21" Value="Stop"
				Note Time="30" Value="C4" Instrument="Duty 1" Volume="12"
				Note Time="31" Value="Stop"
				Note Time="40" Value="C#4" Instrument="Duty 1" Volume="12"
				Note Time="42" Value="Stop"
				Note Time="51" Value="D#4" Instrument="Duty 1" Volume="12"
				Note Time="52" Value="Stop"
				Note Time="61" Value="G4" Instrument="Duty 1" Volume="12"
				Note Time="62" Value="Stop"
				Note Time="71" Value="G#4" Instrument="Duty 1" Volume="12"
				Note Time="72" Value="Stop"
				Note Time="81" Value="A#4" Instrument="Duty 1" Volume="12"
				Note Time="83" Value="Stop"
				Note Time="92" Value="C5" Instrument="Duty 1" Volume="12"
				Note Time="93" Value="Stop"
				Note Time="112" Value="C#5" Instrument="Duty 1" Volume="12"
				Note Time="115" Value="Stop"
				Note Time="122" Value="D#5" Instrument="Duty 1" Volume="12"
				Note Time="124" Value="Stop"
				Note Time="133" Value="C5" Instrument="Duty 1" Volume="12"
				Note Time="134" Value="Stop"
				Note Time="153" Value="G#4" Instrument="Duty 1" Volume="12"
				Note Time="156" Value="Stop"
				Note Time="163" Value="A#4" Instrument="Duty 1" Volume="12"
				Note Time="165" Value="Stop"
				Note Time="174" Value="C5" Instrument="Duty 1" Volume="12"
				Note Time="175" Value="Stop"
				Note Time="184" Value="C#5" Instrument="Duty 1" Volume="12"
				Note Time="185" Value="Stop"
				Note Time="194" Value="C5" Instrument="Duty 1" Volume="12"
				Note Time="195" Value="Stop"
				Note Time="204" Value="G#4" Instrument="Duty 1" Volume="12"
				Note Time="206" Value="Stop"
				Note Time="225" Value="A#3" Instrument="Duty 1" Volume="12"
				Note Time="227" Value="Stop"
				Note Time="235" Value="C#4" Instrument="Duty 1" Volume="12"
				Note Time="236" Value="Stop"
				Note Time="245" Value="C4" Instrument="Duty 1" Volume="12"
				Note Time="247" Value="Stop"
				Note Time="255" Value="C#4" Instrument="Duty 1" Volume="12"
			Pattern Name="Pattern 6"
				Note Time="1" Value="Stop"
				Note Time="20" Value="G#3" Instrument="Duty 1" Volume="12"
				Note Time="23" Value="Stop"
				Note Time="30" Value="A#3" Instrument="Duty 1" Volume="12"
				Note Time="31" Value="Stop"
				Note Time="40" Value="C4" Instrument="Duty 1" Volume="12"
				Note Time="42" Value="Stop"
				Note Time="51" Value="F4" Instrument="Duty 1" Volume="12"
				Note Time="52" Value="Stop"
				Note Time="61" Value="G4" Instrument="Duty 1" Volume="12"
				Note Time="62" Value="Stop"
				Note Time="71" Value="G#4" Instrument="Duty 1" Volume="12"
				Note Time="72" Value="Stop"
				Note Time="92" Value="A#3" Instrument="Duty 1" Volume="12"
				Note Time="94" Value="Stop"
				Note Time="102" Value="C#4" Instrument="Duty 1" Volume="12"
				Note Time="103" Value="Stop"
				Note Time="112" Value="C4" Instrument="Duty 1" Volume="12"
				Note Time="113" Value="Stop"
				Note Time="122" Value="C#4" Instrument="Duty 1" Volume="12"
				Note Time="124" Value="Stop"
				Note Time="143" Value="G#3" Instrument="Duty 1" Volume="12"
				Note Time="145" Value="Stop"
				Note Time="153" Value="A#3" Instrument="Duty 1" Volume="12"
				Note Time="154" Value="Stop"
				Note Time="163" Value="C4" Instrument="Duty 1" Volume="12"
				Note Time="165" Value="Stop"
				Note Time="174" Value="F4" Instrument="Duty 1" Volume="12"
				Note Time="175" Value="Stop"
				Note Time="184" Value="G4" Instrument="Duty 1" Volume="12"
				Note Time="185" Value="Stop"
				Note Time="194" Value="G#4" Instrument="Duty 1" Volume="12"
				Note Time="195" Value="Stop"
				Note Time="215" Value="C#4" Instrument="Duty 1" Volume="12"
				Note Time="217" Value="Stop"
				Note Time="225" Value="G#4" Instrument="Duty 1" Volume="12"
				Note Time="226" Value="Stop"
				Note Time="235" Value="F#4" Instrument="Duty 1" Volume="12"
				Note Time="236" Value="Stop"
				Note Time="245" Value="E4" Instrument="Duty 1" Volume="12"
				Note Time="247" Value="Stop"
			Pattern Name="Pattern 7"
				Note Time="10" Value="A#3" Instrument="Duty 1" Volume="12"
				Note Time="12" Value="Stop"
				Note Time="20" Value="D#4" Instrument="Duty 1" Volume="12"
				Note Time="21" Value="Stop"
				Note Time="30" Value="C#4" Instrument="Duty 1" Volume="12"
				Note Time="31" Value="Stop"
				Note Time="51" Value="G#3" Instrument="Duty 1" Volume="12"
				Note Time="53" Value="Stop"
				Note Time="61" Value="A#3" Instrument="Duty 1" Volume="12"
				Note Time="62" Value="Stop"
				Note Time="71" Value="C4" Instrument="Duty 1" Volume="12"
				Note Time="72" Value="Stop"
				Note Time="81" Value="F4" Instrument="Duty 1" Volume="12"
				Note Time="83" Value="Stop"
				Note Time="92" Value="G4" Instrument="Duty 1" Volume="12"
				Note Time="93" Value="Stop"
				Note Time="102" Value="G#4" Instrument="Duty 1" Volume="12"
				Note Time="103" Value="Stop"
				Note Time="122" Value="A#3" Instrument="Duty 1" Volume="12"
				Note Time="125" Value="Stop"
				Note Time="133" Value="C#4" Instrument="Duty 1" Volume="12"
				Note Time="134" Value="Stop"
				Note Time="143" Value="C4" Instrument="Duty 1" Volume="12"
				Note Time="144" Value="Stop"
				Note Time="153" Value="C#4" Instrument="Duty 1" Volume="12"
				Note Time="154" Value="Stop"
				Note Time="174" Value="G#3" Instrument="Duty 1" Volume="12"
				Note Time="176" Value="Stop"
				Note Time="184" Value="A#3" Instrument="Duty 1" Volume="12"
				Note Time="185" Value="Stop"
				Note Time="194" Value="C4" Instrument="Duty 1" Volume="12"
				Note Time="195" Value="Stop"
				Note Time="204" Value="F4" Instrument="Duty 1" Volume="12"
				Note Time="206" Value="Stop"
				Note Time="215" Value="G4" Instrument="Duty 1" Volume="12"
				Note Time="216" Value="Stop"
				Note Time="225" Value="G#4" Instrument="Duty 1" Volume="12"
				Note Time="226" Value="Stop"
				Note Time="245" Value="A#3" Instrument="Duty 1" Volume="12"
				Note Time="248" Value="Stop"
				Note Time="255" Value="G#4" Instrument="Duty 1" Volume="12"
			Pattern Name="Pattern 8"
				Note Time="1" Value="Stop"
				Note Time="10" Value="F#4" Instrument="Duty 1" Volume="12"
				Note Time="11" Value="Stop"
				Note Time="20" Value="E4" Instrument="Duty 1" Volume="12"
				Note Time="21" Value="Stop"
				Note Time="40" Value="C#4" Instrument="Duty 1" Volume="12"
				Note Time="43" Value="Stop"
				Note Time="51" Value="D#4" Instrument="Duty 1" Volume="12"
				Note Time="52" Value="Stop"
				Note Time="61" Value="C#4" Instrument="Duty 1" Volume="12"
				Note Time="62" Value="Stop"
				Note Time="81" Value="G#3" Instrument="Duty 1" Volume="12"
				Note Time="84" Value="Stop"
				Note Time="92" Value="A#3" Instrument="Duty 1" Volume="12"
				Note Time="93" Value="Stop"
				Note Time="102" Value="C4" Instrument="Duty 1" Volume="12"
				Note Time="103" Value="Stop"
				Note Time="112" Value="F4" Instrument="Duty 1" Volume="12"
				Note Time="113" Value="Stop"
				Note Time="122" Value="G4" Instrument="Duty 1" Volume="12"
				Note Time="124" Value="Stop"
				Note Time="133" Value="G#4" Instrument="Duty 1" Volume="12"
				Note Time="134" Value="Stop"
				Note Time="153" Value="C#5" Instrument="Duty 1" Volume="12"
				Note Time="156" Value="Stop"
				Note Time="163" Value="G#4" Instrument="Duty 1" Volume="12"
				Note Time="165" Value="Stop"
				Note Time="174" Value="F#4" Instrument="Duty 1" Volume="12"
				Note Time="175" Value="Stop"
				Note Time="184" Value="E4" Instrument="Duty 1" Volume="12"
				Note Time="185" Value="Stop"
				Note Time="204" Value="C#4" Instrument="Duty 1" Volume="12"
				Note Time="207" Value="Stop"
				Note Time="215" Value="D#4" Instrument="Duty 1" Volume="12"
				Note Time="216" Value="Stop"
				Note Time="225" Value="C#4" Instrument="Duty 1" Volume="12"
				Note Time="226" Value="Stop"
				Note Time="245" Value="A#3" Instrument="Duty 1" Volume="12"
				Note Time="248" Value="Stop"
				Note Time="255" Value="D#4" Instrument="Duty 1" Volume="12"
			Pattern Name="Pattern 9"
				Note Time="1" Value="Stop"
				Note Time="10" Value="C#4" Instrument="Duty 1" Volume="12"
				Note Time="11" Value="Stop"
				Note Time="30" Value="G#3" Instrument="Duty 1" Volume="12"
				Note Time="33" Value="Stop"
				Note Time="40" Value="A#3" Instrument="Duty 1" Volume="12"
				Note Time="42" Value="Stop"
				Note Time="51" Value="C4" Instrument="Duty 1" Volume="12"
				Note Time="52" Value="Stop"
				Note Time="61" Value="F4" Instrument="Duty 1" Volume="12"
				Note Time="62" Value="Stop"
				Note Time="71" Value="G4" Instrument="Duty 1" Volume="12"
				Note Time="72" Value="Stop"
				Note Time="81" Value="G#4" Instrument="Duty 1" Volume="12"
				Note Time="83" Value="Stop"
				Note Time="102" Value="A#3" Instrument="Duty 1" Volume="12"
				Note Time="104" Value="Stop"
				Note Time="112" Value="C#4" Instrument="Duty 1" Volume="12"
				Note Time="113" Value="Stop"
				Note Time="122" Value="C4" Instrument="Duty 1" Volume="12"
				Note Time="124" Value="Stop"
				Note Time="133" Value="C#4" Instrument="Duty 1" Volume="12"
				Note Time="134" Value="Stop"
				Note Time="153" Value="G#3" Instrument="Duty 1" Volume="12"
				Note Time="156" Value="Stop"
				Note Time="163" Value="A#3" Instrument="Duty 1" Volume="12"
				Note Time="165" Value="Stop"
				Note Time="174" Value="C4" Instrument="Duty 1" Volume="12"
				Note Time="175" Value="Stop"
				Note Time="184" Value="F4" Instrument="Duty 1" Volume="12"
				Note Time="185" Value="Stop"
				Note Time="194" Value="G4" Instrument="Duty 1" Volume="12"
				Note Time="195" Value="Stop"
				Note Time="204" Value="G#4" Instrument="Duty 1" Volume="12"
				Note Time="206" Value="Stop"
			PatternInstance Time="0" Pattern="Pattern 1"
			PatternInstance Time="1" Pattern="Pattern 2"
			PatternInstance Time="2" Pattern="Pattern 3"
			PatternInstance Time="3" Pattern="Pattern 4"
			PatternInstance Time="4" Pattern="Pattern 5"
			PatternInstance Time="5" Pattern="Pattern 6"
			PatternInstance Time="6" Pattern="Pattern 7"
			PatternInstance Time="7" Pattern="Pattern 8"
			PatternInstance Time="8" Pattern="Pattern 9"
		Channel Type="Triangle"
			Pattern Name="Pattern 1"
				Note Time="0" Value="G#3" Instrument="Duty 2" Volume="10"
				Note Time="10" Value="G#2" Instrument="Duty 2" Volume="10"
				Note Time="20" Value="F#3" Instrument="Duty 2" Volume="10"
				Note Time="21" Value="Stop"
				Note Time="30" Value="G#3" Instrument="Duty 2" Volume="10"
				Note Time="32" Value="Stop"
				Note Time="40" Value="C#3" Instrument="Duty 2" Volume="10"
				Note Time="51" Value="C#4" Instrument="Duty 2" Volume="10"
				Note Time="52" Value="Stop"
				Note Time="61" Value="F#2" Instrument="Duty 2" Volume="10"
				Note Time="71" Value="F#3" Instrument="Duty 2" Volume="10"
				Note Time="72" Value="Stop"
				Note Time="81" Value="G#2" Instrument="Duty 2" Volume="10"
				Note Time="92" Value="G#3" Instrument="Duty 2" Volume="10"
				Note Time="93" Value="Stop"
				Note Time="102" Value="A#2" Instrument="Duty 2" Volume="10"
				Note Time="112" Value="A#3" Instrument="Duty 2" Volume="10"
				Note Time="113" Value="Stop"
				Note Time="122" Value="G#2" Instrument="Duty 2" Volume="10"
				Note Time="133" Value="G#3" Instrument="Duty 2" Volume="10"
				Note Time="134" Value="Stop"
				Note Time="143" Value="F#2" Instrument="Duty 2" Volume="10"
				Note Time="153" Value="F#3" Instrument="Duty 2" Volume="10"
				Note Time="154" Value="Stop"
				Note Time="163" Value="G#2" Instrument="Duty 2" Volume="10"
				Note Time="174" Value="G#3" Instrument="Duty 2" Volume="10"
				Note Time="175" Value="Stop"
				Note Time="184" Value="A#2" Instrument="Duty 2" Volume="10"
				Note Time="194" Value="A#3" Instrument="Duty 2" Volume="10"
				Note Time="195" Value="Stop"
				Note Time="204" Value="G#2" Instrument="Duty 2" Volume="10"
				Note Time="215" Value="G#3" Instrument="Duty 2" Volume="10"
				Note Time="216" Value="Stop"
				Note Time="225" Value="F#2" Instrument="Duty 2" Volume="10"
				Note Time="235" Value="F#3" Instrument="Duty 2" Volume="10"
				Note Time="236" Value="Stop"
				Note Time="245" Value="G#2" Instrument="Duty 2" Volume="10"
			Pattern Name="Pattern 2"
				Note Time="0" Value="G#3" Instrument="Duty 2" Volume="10"
				Note Time="1" Value="Stop"
				Note Time="10" Value="A#2" Instrument="Duty 2" Volume="10"
				Note Time="20" Value="A#3" Instrument="Duty 2" Volume="10"
				Note Time="21" Value="Stop"
				Note Time="30" Value="G#2" Instrument="Duty 2" Volume="10"
				Note Time="40" Value="G#3" Instrument="Duty 2" Volume="10"
				Note Time="42" Value="Stop"
				Note Time="51" Value="A#2" Instrument="Duty 2" Volume="10"
				Note Time="61" Value="A#3" Instrument="Duty 2" Volume="10"
				Note Time="62" Value="Stop"
				Note Time="71" Value="G#2" Instrument="Duty 2" Volume="10"
				Note Time="81" Value="G#3" Instrument="Duty 2" Volume="10"
				Note Time="83" Value="Stop"
				Note Time="92" Value="A#2" Instrument="Duty 2" Volume="10"
				Note Time="102" Value="G#3" Instrument="Duty 2" Volume="10"
				Note Time="103" Value="Stop"
				Note Time="112" Value="F#2" Instrument="Duty 2" Volume="10"
				Note Time="122" Value="F#3" Instrument="Duty 2" Volume="10"
				Note Time="124" Value="Stop"
				Note Time="133" Value="A#2" Instrument="Duty 2" Volume="10"
				Note Time="143" Value="A#3" Instrument="Duty 2" Volume="10"
				Note Time="144" Value="Stop"
				Note Time="153" Value="G#2" Instrument="Duty 2" Volume="10"
				Note Time="163" Value="G#3" Instrument="Duty 2" Volume="10"
				Note Time="165" Value="Stop"
				Note Time="174" Value="G#2" Instrument="Duty 2" Volume="10"
				Note Time="184" Value="G#3" Instrument="Duty 2" Volume="10"
				Note Time="185" Value="Stop"
				Note Time="194" Value="F#2" Instrument="Duty 2" Volume="10"
				Note Time="204" Value="F#3" Instrument="Duty 2" Volume="10"
				Note Time="206" Value="Stop"
				Note Time="215" Value="G#2" Instrument="Duty 2" Volume="10"
				Note Time="225" Value="G#3" Instrument="Duty 2" Volume="10"
				Note Time="226" Value="Stop"
				Note Time="235" Value="A#2" Instrument="Duty 2" Volume="10"
				Note Time="245" Value="G#3" Instrument="Duty 2" Volume="10"
				Note Time="247" Value="Stop"
			Pattern Name="Pattern 3"
				Note Time="0" Value="F#2" Instrument="Duty 2" Volume="10"
				Note Time="10" Value="F#3" Instrument="Duty 2" Volume="10"
				Note Time="11" Value="Stop"
				Note Time="20" Value="A#2" Instrument="Duty 2" Volume="10"
				Note Time="30" Value="A#3" Instrument="Duty 2" Volume="10"
				Note Time="32" Value="Stop"
				Note Time="40" Value="G#2" Instrument="Duty 2" Volume="10"
				Note Time="51" Value="G#3" Instrument="Duty 2" Volume="10"
				Note Time="52" Value="Stop"
				Note Time="61" Value="F#2" Instrument="Duty 2" Volume="10"
				Note Time="71" Value="F#3" Instrument="Duty 2" Volume="10"
				Note Time="72" Value="Stop"
				Note Time="81" Value="G#2" Instrument="Duty 2" Volume="10"
				Note Time="92" Value="G#3" Instrument="Duty 2" Volume="10"
				Note Time="93" Value="Stop"
				Note Time="102" Value="A#2" Instrument="Duty 2" Volume="10"
				Note Time="112" Value="G#3" Instrument="Duty 2" Volume="10"
				Note Time="113" Value="Stop"
				Note Time="122" Value="F#2" Instrument="Duty 2" Volume="10"
				Note Time="133" Value="F#3" Instrument="Duty 2" Volume="10"
				Note Time="134" Value="Stop"
				Note Time="143" Value="A#2" Instrument="Duty 2" Volume="10"
				Note Time="153" Value="A#3" Instrument="Duty 2" Volume="10"
				Note Time="154" Value="Stop"
				Note Time="163" Value="G#2" Instrument="Duty 2" Volume="10"
				Note Time="174" Value="G#3" Instrument="Duty 2" Volume="10"
				Note Time="175" Value="Stop"
				Note Time="184" Value="F#2" Instrument="Duty 2" Volume="10"
				Note Time="194" Value="F#3" Instrument="Duty 2" Volume="10"
				Note Time="195" Value="Stop"
				Note Time="204" Value="G#2" Instrument="Duty 2" Volume="10"
				Note Time="215" Value="G#3" Instrument="Duty 2" Volume="10"
				Note Time="216" Value="Stop"
				Note Time="225" Value="A#2" Instrument="Duty 2" Volume="10"
				Note Time="235" Value="A#3" Instrument="Duty 2" Volume="10"
				Note Time="236" Value="Stop"
				Note Time="245" Value="G#2" Instrument="Duty 2" Volume="10"
			Pattern Name="Pattern 4"
				Note Time="0" Value="G#3" Instrument="Duty 2" Volume="10"
				Note Time="1" Value="Stop"
				Note Time="10" Value="A#2" Instrument="Duty 2" Volume="10"
				Note Time="20" Value="A#3" Instrument="Duty 2" Volume="10"
				Note Time="21" Value="Stop"
				Note Time="30" Value="G#2" Instrument="Duty 2" Volume="10"
				Note Time="40" Value="G#3" Instrument="Duty 2" Volume="10"
				Note Time="42" Value="Stop"
				Note Time="51" Value="A#2" Instrument="Duty 2" Volume="10"
				Note Time="61" Value="G#3" Instrument="Duty 2" Volume="10"
				Note Time="62" Value="Stop"
				Note Time="71" Value="F#2" Instrument="Duty 2" Volume="10"
				Note Time="81" Value="F#3" Instrument="Duty 2" Volume="10"
				Note Time="83" Value="Stop"
				Note Time="92" Value="A#2" Instrument="Duty 2" Volume="10"
				Note Time="102" Value="A#3" Instrument="Duty 2" Volume="10"
				Note Time="103" Value="Stop"
				Note Time="112" Value="G#2" Instrument="Duty 2" Volume="10"
				Note Time="122" Value="G#3" Instrument="Duty 2" Volume="10"
				Note Time="124" Value="Stop"
				Note Time="133" Value="F#2" Instrument="Duty 2" Volume="10"
				Note Time="143" Value="F#3" Instrument="Duty 2" Volume="10"
				Note Time="144" Value="Stop"
				Note Time="153" Value="G#2" Instrument="Duty 2" Volume="10"
				Note Time="163" Value="G#3" Instrument="Duty 2" Volume="10"
				Note Time="165" Value="Stop"
				Note Time="174" Value="A#2" Instrument="Duty 2" Volume="10"
				Note Time="184" Value="A#3" Instrument="Duty 2" Volume="10"
				Note Time="185" Value="Stop"
				Note Time="194" Value="G#2" Instrument="Duty 2" Volume="10"
				Note Time="204" Value="G#3" Instrument="Duty 2" Volume="10"
				Note Time="206" Value="Stop"
				Note Time="215" Value="A#2" Instrument="Duty 2" Volume="10"
				Note Time="225" Value="A#3" Instrument="Duty 2" Volume="10"
				Note Time="226" Value="Stop"
				Note Time="235" Value="G#2" Instrument="Duty 2" Volume="10"
				Note Time="245" Value="G#3" Instrument="Duty 2" Volume="10"
				Note Time="247" Value="Stop"
				Note Time="255" Value="A#2" Instrument="Duty 2" Volume="10"
			Pattern Name="Pattern 5"
				Note Time="10" Value="A#3" Instrument="Duty 2" Volume="10"
				Note Time="11" Value="Stop"
				Note Time="20" Value="F#2" Instrument="Duty 2" Volume="10"
				Note Time="30" Value="F#3" Instrument="Duty 2" Volume="10"
				Note Time="31" Value="Stop"
				Note Time="40" Value="A#2" Instrument="Duty 2" Volume="10"
				Note Time="51" Value="A#3" Instrument="Duty 2" Volume="10"
				Note Time="52" Value="Stop"
				Note Time="61" Value="G#2" Instrument="Duty 2" Volume="10"
				Note Time="71" Value="G#3" Instrument="Duty 2" Volume="10"
				Note Time="72" Value="Stop"
				Note Time="81" Value="F#2" Instrument="Duty 2" Volume="10"
				Note Time="92" Value="F#3" Instrument="Duty 2" Volume="10"
				Note Time="93" Value="Stop"
				Note Time="102" Value="G#2" Instrument="Duty 2" Volume="10"
				Note Time="112" Value="G#3" Instrument="Duty 2" Volume="10"
				Note Time="113" Value="Stop"
				Note Time="122" Value="F#2" Instrument="Duty 2" Volume="10"
				Note Time="133" Value="F#3" Instrument="Duty 2" Volume="10"
				Note Time="134" Value="Stop"
				Note Time="143" Value="A#2" Instrument="Duty 2" Volume="10"
				Note Time="153" Value="G#3" Instrument="Duty 2" Volume="10"
				Note Time="154" Value="Stop"
				Note Time="163" Value="F#2" Instrument="Duty 2" Volume="10"
				Note Time="174" Value="G#3" Instrument="Duty 2" Volume="10"
				Note Time="175" Value="Stop"
				Note Time="184" Value="A#2" Instrument="Duty 2" Volume="10"
				Note Time="194" Value="A#3" Instrument="Duty 2" Volume="10"
				Note Time="195" Value="Stop"
				Note Time="204" Value="G#2" Instrument="Duty 2" Volume="10"
				Note Time="215" Value="G#3" Instrument="Duty 2" Volume="10"
				Note Time="216" Value="Stop"
				Note Time="225" Value="F#2" Instrument="Duty 2" Volume="10"
				Note Time="235" Value="F#3" Instrument="Duty 2" Volume="10"
				Note Time="236" Value="Stop"
				Note Time="245" Value="G#2" Instrument="Duty 2" Volume="10"
				Note Time="255" Value="G#3" Instrument="Duty 2" Volume="10"
			Pattern Name="Pattern 6"
				Note Time="1" Value="Stop"
				Note Time="10" Value="A#2" Instrument="Duty 2" Volume="10"
				Note Time="20" Value="G#3" Instrument="Duty 2" Volume="10"
				Note Time="21" Value="Stop"
				Note Time="30" Value="F#2" Instrument="Duty 2" Volume="10"
				Note Time="40" Value="F#3" Instrument="Duty 2" Volume="10"
				Note Time="42" Value="Stop"
				Note Time="51" Value="A#2" Instrument="Duty 2" Volume="10"
				Note Time="61" Value="A#3" Instrument="Duty 2" Volume="10"
				Note Time="62" Value="Stop"
				Note Time="71" Value="G#2" Instrument="Duty 2" Volume="10"
				Note Time="81" Value="G#3" Instrument="Duty 2" Volume="10"
				Note Time="83" Value="Stop"
				Note Time="92" Value="F#2" Instrument="Duty 2" Volume="10"
				Note Time="102" Value="F#3" Instrument="Duty 2" Volume="10"
				Note Time="103" Value="Stop"
				Note Time="112" Value="G#2" Instrument="Duty 2" Volume="10"
				Note Time="122" Value="G#3" Instrument="Duty 2" Volume="10"
				Note Time="124" Value="Stop"
				Note Time="133" Value="A#2" Instrument="Duty 2" Volume="10"
				Note Time="143" Value="G#3" Instrument="Duty 2" Volume="10"
				Note Time="144" Value="Stop"
				Note Time="153" Value="F#2" Instrument="Duty 2" Volume="10"
				Note Time="163" Value="F#3" Instrument="Duty 2" Volume="10"
				Note Time="165" Value="Stop"
				Note Time="174" Value="A#2" Instrument="Duty 2" Volume="10"
				Note Time="184" Value="A#3" Instrument="Duty 2" Volume="10"
				Note Time="185" Value="Stop"
				Note Time="194" Value="G#2" Instrument="Duty 2" Volume="10"
				Note Time="204" Value="G#3" Instrument="Duty 2" Volume="10"
				Note Time="206" Value="Stop"
				Note Time="215" Value="F#2" Instrument="Duty 2" Volume="10"
				Note Time="225" Value="F#3" Instrument="Duty 2" Volume="10"
				Note Time="226" Value="Stop"
				Note Time="235" Value="G#2" Instrument="Duty 2" Volume="10"
				Note Time="245" Value="G#3" Instrument="Duty 2" Volume="10"
				Note Time="247" Value="Stop"
				Note Time="255" Value="A#2" Instrument="Duty 2" Volume="10"
			Pattern Name="Pattern 7"
				Note Time="10" Value="A#3" Instrument="Duty 2" Volume="10"
				Note Time="11" Value="Stop"
				Note Time="20" Value="G#2" Instrument="Duty 2" Volume="10"
				Note Time="30" Value="G#3" Instrument="Duty 2" Volume="10"
				Note Time="31" Value="Stop"
				Note Time="40" Value="A#2" Instrument="Duty 2" Volume="10"
				Note Time="51" Value="G#3" Instrument="Duty 2" Volume="10"
				Note Time="52" Value="Stop"
				Note Time="61" Value="F#2" Instrument="Duty 2" Volume="10"
				Note Time="71" Value="F#3" Instrument="Duty 2" Volume="10"
				Note Time="72" Value="Stop"
				Note Time="81" Value="A#2" Instrument="Duty 2" Volume="10"
				Note Time="92" Value="A#3" Instrument="Duty 2" Volume="10"
				Note Time="93" Value="Stop"
				Note Time="102" Value="G#2" Instrument="Duty 2" Volume="10"
				Note Time="112" Value="G#3" Instrument="Duty 2" Volume="10"
				Note Time="113" Value="Stop"
				Note Time="122" Value="F#2" Instrument="Duty 2" Volume="10"
				Note Time="133" Value="F#3" Instrument="Duty 2" Volume="10"
				Note Time="134" Value="Stop"
				Note Time="143" Value="G#2" Instrument="Duty 2" Volume="10"
				Note Time="153" Value="G#3" Instrument="Duty 2" Volume="10"
				Note Time="154" Value="Stop"
				Note Time="163" Value="A#2" Instrument="Duty 2" Volume="10"
				Note Time="174" Value="G#3" Instrument="Duty 2" Volume="10"
				Note Time="175" Value="Stop"
				Note Time="184" Value="F#2" Instrument="Duty 2" Volume="10"
				Note Time="194" Value="F#3" Instrument="Duty 2" Volume="10"
				Note Time="195" Value="Stop"
				Note Time="204" Value="A#2" Instrument="Duty 2" Volume="10"
				Note Time="215" Value="A#3" Instrument="Duty 2" Volume="10"
				Note Time="216" Value="Stop"
				Note Time="225" Value="G#2" Instrument="Duty 2" Volume="10"
				Note Time="235" Value="G#3" Instrument="Duty 2" Volume="10"
				Note Time="236" Value="Stop"
				Note Time="245" Value="F#2" Instrument="Duty 2" Volume="10"
				Note Time="255" Value="F#3" Instrument="Duty 2" Volume="10"
			Pattern Name="Pattern 8"
				Note Time="1" Value="Stop"
				Note Time="10" Value="G#2" Instrument="Duty 2" Volume="10"
				Note Time="20" Value="G#3" Instrument="Duty 2" Volume="10"
				Note Time="21" Value="Stop"
				Note Time="30" Value="A#2" Instrument="Duty 2" Volume="10"
				Note Time="40" Value="A#3" Instrument="Duty 2" Volume="10"
				Note Time="42" Value="Stop"
				Note Time="51" Value="G#2" Instrument="Duty 2" Volume="10"
				Note Time="61" Value="G#3" Instrument="Duty 2" Volume="10"
				Note Time="62" Value="Stop"
				Note Time="71" Value="A#2" Instrument="Duty 2" Volume="10"
				Note Time="81" Value="G#3" Instrument="Duty 2" Volume="10"
				Note Time="83" Value="Stop"
				Note Time="92" Value="F#2" Instrument="Duty 2" Volume="10"
				Note Time="102" Value="F#3" Instrument="Duty 2" Volume="10"
				Note Time="103" Value="Stop"
				Note Time="112" Value="A#2" Instrument="Duty 2" Volume="10"
				Note Time="122" Value="A#3" Instrument="Duty 2" Volume="10"
				Note Time="124" Value="Stop"
				Note Time="133" Value="G#2" Instrument="Duty 2" Volume="10"
				Note Time="143" Value="G#3" Instrument="Duty 2" Volume="10"
				Note Time="144" Value="Stop"
				Note Time="153" Value="F#2" Instrument="Duty 2" Volume="10"
				Note Time="163" Value="F#3" Instrument="Duty 2" Volume="10"
				Note Time="165" Value="Stop"
				Note Time="174" Value="G#2" Instrument="Duty 2" Volume="10"
				Note Time="184" Value="G#3" Instrument="Duty 2" Volume="10"
				Note Time="185" Value="Stop"
				Note Time="194" Value="A#2" Instrument="Duty 2" Volume="10"
				Note Time="204" Value="A#3" Instrument="Duty 2" Volume="10"
				Note Time="206" Value="Stop"
				Note Time="215" Value="G#2" Instrument="Duty 2" Volume="10"
				Note Time="225" Value="G#3" Instrument="Duty 2" Volume="10"
				Note Time="226" Value="Stop"
				Note Time="235" Value="A#2" Instrument="Duty 2" Volume="10"
				Note Time="245" Value="A#3" Instrument="Duty 2" Volume="10"
				Note Time="247" Value="Stop"
				Note Time="255" Value="G#2" Instrument="Duty 2" Volume="10"
			Pattern Name="Pattern 9"
				Note Time="10" Value="G#3" Instrument="Duty 2" Volume="10"
				Note Time="11" Value="Stop"
				Note Time="20" Value="A#2" Instrument="Duty 2" Volume="10"
				Note Time="30" Value="G#3" Instrument="Duty 2" Volume="10"
				Note Time="31" Value="Stop"
				Note Time="40" Value="F#2" Instrument="Duty 2" Volume="10"
				Note Time="51" Value="F#3" Instrument="Duty 2" Volume="10"
				Note Time="52" Value="Stop"
				Note Time="61" Value="A#2" Instrument="Duty 2" Volume="10"
				Note Time="71" Value="A#3" Instrument="Duty 2" Volume="10"
				Note Time="72" Value="Stop"
				Note Time="81" Value="G#2" Instrument="Duty 2" Volume="10"
				Note Time="92" Value="G#3" Instrument="Duty 2" Volume="10"
				Note Time="93" Value="Stop"
				Note Time="102" Value="F#2" Instrument="Duty 2" Volume="10"
				Note Time="112" Value="F#3" Instrument="Duty 2" Volume="10"
				Note Time="113" Value="Stop"
				Note Time="122" Value="G#2" Instrument="Duty 2" Volume="10"
				Note Time="133" Value="G#3" Instrument="Duty 2" Volume="10"
				Note Time="134" Value="Stop"
				Note Time="143" Value="A#2" Instrument="Duty 2" Volume="10"
				Note Time="153" Value="G#3" Instrument="Duty 2" Volume="10"
				Note Time="154" Value="Stop"
				Note Time="163" Value="F#2" Instrument="Duty 2" Volume="10"
				Note Time="174" Value="F#3" Instrument="Duty 2" Volume="10"
				Note Time="175" Value="Stop"
				Note Time="184" Value="A#2" Instrument="Duty 2" Volume="10"
				Note Time="194" Value="A#3" Instrument="Duty 2" Volume="10"
				Note Time="195" Value="Stop"
			PatternInstance Time="0" Pattern="Pattern 1"
			PatternInstance Time="1" Pattern="Pattern 2"
			PatternInstance Time="2" Pattern="Pattern 3"
			PatternInstance Time="3" Pattern="Pattern 4"
			PatternInstance Time="4" Pattern="Pattern 5"
			PatternInstance Time="5" Pattern="Pattern 6"
			PatternInstance Time="6" Pattern="Pattern 7"
			PatternInstance Time="7" Pattern="Pattern 8"
			PatternInstance Time="8" Pattern="Pattern 9"
		Channel Type="Noise"
			Pattern Name="Pattern 1"
				Note Time="0" Value="A#3" Instrument="Duty 3" Volume="7"
				Note Time="5" Value="A#3" Instrument="Duty 3" Volume="7"
				Note Time="10" Value="A#2" Instrument="Duty 3" Volume="7"
				Note Time="15" Value="A#3" Instrument="Duty 3" Volume="7"
				Note Time="20" Value="A#3" Instrument="Duty 3" Volume="7"
				Note Time="25" Value="A#3" Instrument="Duty 3" Volume="7"
				Note Time="30" Value="A#2" Instrument="Duty 3" Volume="7"
				Note Time="35" Value="A#3" Instrument="Duty 3" Volume="7"
				Note Time="40" Value="A#2" Instrument="Duty 3" Volume="7"
				Note Time="46" Value="A#3" Instrument="Duty 3" Volume="7"
				Note Time="51" Value="A#3" Instrument="Duty 3" Volume="7"
				Note Time="56" Value="A#3" Instrument="Duty 3" Volume="7"
				Note Time="61" Value="A#2" Instrument="Duty 3" Volume="7"
				Note Time="66" Value="A#3" Instrument="Duty 3" Volume="7"
				Note Time="71" Value="A#3" Instrument="Duty 3" Volume="7"
				Note Time="76" Value="A#3" Instrument="Duty 3" Volume="7"
				Note Time="81" Value="A#2" Instrument="Duty 3" Volume="7"
				Note Time="87" Value="A#3" Instrument="Duty 3" Volume="7"
				Note Time="92" Value="A#3" Instrument="Duty 3" Volume="7"
				Note Time="97" Value="A#3" Instrument="Duty 3" Volume="7"
				Note Time="102" Value="A#2" Instrument="Duty 3" Volume="7"
				Note Time="107" Value="A#3" Instrument="Duty 3" Volume="7"
				Note Time="112" Value="A#3" Instrument="Duty 3" Volume="7"
				Note Time="117" Value="A#3" Instrument="Duty 3" Volume="7"
				Note Time="122" Value="A#2" Instrument="Duty 3" Volume="7"
				Note Time="128" Value="A#3" Instrument="Duty 3" Volume="7"
				Note Time="133" Value="A#3" Instrument="Duty 3" Volume="7"
				Note Time="138" Value="A#3" Instrument="Duty 3" Volume="7"
				Note Time="143" Value="A#2" Instrument="Duty 3" Volume="7"
				Note Time="148" Value="A#3" Instrument="Duty 3" Volume="7"
				Note Time="153" Value="A#3" Instrument="Duty 3" Volume="7"
				Note Time="158" Value="A#3" Instrument="Duty 3" Volume="7"
				Note Time="163" Value="A#2" Instrument="Duty 3" Volume="7"
				Note Time="168" Value="A#3" Instrument="Duty 3" Volume="7"
				Note Time="174" Value="A#3" Instrument="Duty 3" Volume="7"
				Note Time="179" Value="A#3" Instrument="Duty 3" Volume="7"
				Note Time="184" Value="A#2" Instrument="Duty 3" Volume="7"
				Note Time="189" Value="A#3" Instrument="Duty 3" Volume="7"
				Note Time="194" Value="A#3" Instrument="Duty 3" Volume="7"
				Note Time="199" Value="A#3" Instrument="Duty 3" Volume="7"
				Note Time="204" Value="A#2" Instrument="Duty 3" Volume="7"
				Note Time="209" Value="A#3" Instrument="Duty 3" Volume="7"
				Note Time="215" Value="A#3" Instrument="Duty 3" Volume="7"
				Note Time="220" Value="A#3" Instrument="Duty 3" Volume="7"
				Note Time="225" Value="A#2" Instrument="Duty 3" Volume="7"
				Note Time="230" Value="A#3" Instrument="Duty 3" Volume="7"
				Note Time="235" Value="A#3" Instrument="Duty 3" Volume="7"
				Note Time="240" Value="A#3" Instrument="Duty 3" Volume="7"
				Note Time="245" Value="A#2" Instrument="Duty 3" Volume="7"
				Note Time="250" Value="A#3" Instrument="Duty 3" Volume="7"
			Pattern Name="Pattern 2"
				Note Time="0" Value="A#3" Instrument="Duty 3" Volume="7"
				Note Time="5" Value="A#3" Instrument="Duty 3" Volume="7"
				Note Time="10" Value="A#2" Instrument="Duty 3" Volume="7"
				Note Time="15" Value="A#3" Instrument="Duty 3" Volume="7"
				Note Time="20" Value="A#3" Instrument="Duty 3" Volume="7"
				Note Time="25" Value="A#3" Instrument="Duty 3" Volume="7"
				Note Time="30" Value="A#2" Instrument="Duty 3" Volume="7"
				Note Time="35" Value="A#3" Instrument="Duty 3" Volume="7"
				Note Time="40" Value="A#3" Instrument="Duty 3" Volume="7"
				Note Time="46" Value="A#3" Instrument="Duty 3" Volume="7"
				Note Time="51" Value="A#2" Instrument="Duty 3" Volume="7"
				Note Time="56" Value="A#3" Instrument="Duty 3" Volume="7"
				Note Time="61" Value="A#3" Instrument="Duty 3" Volume="7"
				Note Time="66" Value="A#3" Instrument="Duty 3" Volume="7"
				Note Time="71" Value="A#2" Instrument="Duty 3" Volume="7"
				Note Time="76" Value="A#3" Instrument="Duty 3" Volume="7"
				Note Time="81" Value="A#3" Instrument="Duty 3" Volume="7"
				Note Time="87" Value="A#3" Instrument="Duty 3" Volume="7"
				Note Time="92" Value="A#2" Instrument="Duty 3" Volume="7"
				Note Time="97" Value="A#3" Instrument="Duty 3" Volume="7"
				Note Time="102" Value="A#3" Instrument="Duty 3" Volume="7"
				Note Time="107" Value="A#3" Instrument="Duty 3" Volume="7"
				Note Time="112" Value="A#2" Instrument="Duty 3" Volume="7"
				Note Time="117" Value="A#3" Instrument="Duty 3" Volume="7"
				Note Time="122" Value="A#3" Instrument="Duty 3" Volume="7"
				Note Time="128" Value="A#3" Instrument="Duty 3" Volume="7"
				Note Time="133" Value="A#2" Instrument="Duty 3" Volume="7"
				Note Time="138" Value="A#3" Instrument="Duty 3" Volume="7"
				Note Time="143" Value="A#3" Instrument="Duty 3" Volume="7"
				Note Time="148" Value="A#3" Instrument="Duty 3" Volume="7"
				Note Time="153" Value="A#2" Instrument="Duty 3" Volume="7"
				Note Time="158" Value="A#3" Instrument="Duty 3" Volume="7"
				Note Time="163" Value="A#3" Instrument="Duty 3" Volume="7"
				Note Time="168" Value="A#3" Instrument="Duty 3" Volume="7"
				Note Time="174" Value="A#2" Instrument="Duty 3" Volume="7"
				Note Time="179" Value="A#3" Instrument="Duty 3" Volume="7"
				Note Time="184" Value="A#3" Instrument="Duty 3" Volume="7"
				Note Time="189" Value="A#3" Instrument="Duty 3" Volume="7"
				Note Time="194" Value="A#2" Instrument="Duty 3" Volume="7"
				Note Time="199" Value="A#3" Instrument="Duty 3" Volume="7"
				Note Time="204" Value="A#3" Instrument="Duty 3" Volume="7"
				Note Time="209" Value="A#3" Instrument="Duty 3" Volume="7"
				Note Time="215" Value="A#2" Instrument="Duty 3" Volume="7"
				Note Time="220" Value="A#3" Instrument="Duty 3" Volume="7"
				Note Time="225" Value="A#3" Instrument="Duty 3" Volume="7"
				Note Time="230" Value="A#3" Instrument="Duty 3" Volume="7"
				Note Time="235" Value="A#2" Instrument="Duty 3" Volume="7"
				Note Time="240" Value="A#3" Instrument="Duty 3" Volume="7"
				Note Time="245" Value="A#3" Instrument="Duty 3" Volume="7"
				Note Time="250" Value="A#3" Instrument="Duty 3" Volume="7"
			Pattern Name="Pattern 3"
				Note Time="0" Value="A#2" Instrument="Duty 3" Volume="7"
				Note Time="5" Value="A#3" Instrument="Duty 3" Volume="7"
				Note Time="10" Value="A#3" Instrument="Duty 3" Volume="7"
				Note Time="15" Value="A#3" Instrument="Duty 3" Volume="7"
				Note Time="20" Value="A#2" Instrument="Duty 3" Volume="7"
				Note Time="25" Value="A#3" Instrument="Duty 3" Volume="7"
				Note Time="30" Value="A#3" Instrument="Duty 3" Volume="7"
				Note Time="35" Value="A#3" Instrument="Duty 3" Volume="7"
				Note Time="40" Value="A#2" Instrument="Duty 3" Volume="7"
				Note Time="46" Value="A#3" Instrument="Duty 3" Volume="7"
				Note Time="51" Value="A#3" Instrument="Duty 3" Volume="7"
				Note Time="56" Value="A#3" Instrument="Duty 3" Volume="7"
				Note Time="61" Value="A#2" Instrument="Duty 3" Volume="7"
				Note Time="66" Value="A#3" Instrument="Duty 3" Volume="7"
				Note Time="71" Value="A#3" Instrument="Duty 3" Volume="7"
				Note Time="76" Value="A#3" Instrument="Duty 3" Volume="7"
				Note Time="81" Value="A#2" Instrument="Duty 3" Volume="7"
				Note Time="87" Value="A#3" Instrument="Duty 3" Volume="7"
				Note Time="92" Value="A#3" Instrument="Duty 3" Volume="7"
				Note Time="97" Value="A#3" Instrument="Duty 3" Volume="7"
				Note Time="102" Value="A#2" Instrument="Duty 3" Volume="7"
				Note Time="107" Value="A#3" Instrument="Duty 3" Volume="7"
				Note Time="112" Value="A#3" Instrument="Duty 3" Volume="7"
				Note Time="117" Value="A#3" Instrument="Duty 3" Volume="7"
				Note Time="122" Value="A#2" Instrument="Duty 3" Volume="7"
				Note Time="128" Value="A#3" Instrument="Duty 3" Volume="7"
				Note Time="133" Value="A#3" Instrument="Duty 3" Volume="7"
				Note Time="138" Value="A#3" Instrument="Duty 3" Volume="7"
				Note Time="143" Value="A#2" Instrument="Duty 3" Volume="7"
				Note Time="148" Value="A#3" Instrument="Duty 3" Volume="7"
				Note Time="153" Value="A#3" Instrument="Duty 3" Volume="7"
				Note Time="158" Value="A#3" Instrument="Duty 3" Volume="7"
				Note Time="163" Value="A#2" Instrument="Duty 3" Volume="7"
				Note Time="168" Value="A#3" Instrument="Duty 3" Volume="7"
				Note Time="174" Value="A#3" Instrument="Duty 3" Volume="7"
				Note Time="179" Value="A#3" Instrument="Duty 3" Volume="7"
				Note Time="184" Value="A#2" Instrument="Duty 3" Volume="7"
				Note Time="189" Value="A#3" Instrument="Duty 3" Volume="7"
				Note Time="194" Value="A#3" Instrument="Duty 3" Volume="7"
				Note Time="199" Value="A#3" Instrument="Duty 3" Volume="7"
				Note Time="204" Value="A#2" Instrument="Duty 3" Volume="7"
				Note Time="209" Value="A#3" Instrument="Duty 3" Volume="7"
				Note Time="215" Value="A#3" Instrument="Duty 3" Volume="7"
				Note Time="220" Value="A#3" Instrument="Duty 3" Volume="7"
				Note Time="225" Value="A#2" Instrument="Duty 3" Volume="7"
				Note Time="230" Value="A#3" Instrument="Duty 3" Volume="7"
				Note Time="235" Value="A#3" Instrument="Duty 3" Volume="7"
				Note Time="240" Value="A#3" Instrument="Duty 3" Volume="7"
				Note Time="245" Value="A#2" Instrument="Duty 3" Volume="7"
				Note Time="250" Value="A#3" Instrument="Duty 3" Volume="7"
			Pattern Name="Pattern 4"
				Note Time="0" Value="A#3" Instrument="Duty 3" Volume="7"
				Note Time="5" Value="A#3" Instrument="Duty 3" Volume="7"
				Note Time="10" Value="A#2" Instrument="Duty 3" Volume="7"
				Note Time="15" Value="A#3" Instrument="Duty 3" Volume="7"
				Note Time="20" Value="A#3" Instrument="Duty 3" Volume="7"
				Note Time="25" Value="A#3" Instrument="Duty 3" Volume="7"
				Note Time="30" Value="A#2" Instrument="Duty 3" Volume="7"
				Note Time="35" Value="A#3" Instrument="Duty 3" Volume="7"
				Note Time="40" Value="A#3" Instrument="Duty 3" Volume="7"
				Note Time="46" Value="A#3" Instrument="Duty 3" Volume="7"
				Note Time="51" Value="A#2" Instrument="Duty 3" Volume="7"
				Note Time="56" Value="A#3" Instrument="Duty 3" Volume="7"
				Note Time="61" Value="A#3" Instrument="Duty 3" Volume="7"
				Note Time="66" Value="A#3" Instrument="Duty 3" Volume="7"
				Note Time="71" Value="A#2" Instrument="Duty 3" Volume="7"
				Note Time="76" Value="A#3" Instrument="Duty 3" Volume="7"
				Note Time="81" Value="A#3" Instrument="Duty 3" Volume="7"
				Note Time="87" Value="A#3" Instrument="Duty 3" Volume="7"
				Note Time="92" Value="A#2" Instrument="Duty 3" Volume="7"
				Note Time="97" Value="A#3" Instrument="Duty 3" Volume="7"
				Note Time="102" Value="A#3" Instrument="Duty 3" Volume="7"
				Note Time="107" Value="A#3" Instrument="Duty 3" Volume="7"
				Note Time="112" Value="A#2" Instrument="Duty 3" Volume="7"
				Note Time="117" Value="A#3" Instrument="Duty 3" Volume="7"
				Note Time="122" Value="A#3" Instrument="Duty 3" Volume="7"
				Note Time="128" Value="A#3" Instrument="Duty 3" Volume="7"
				Note Time="133" Value="A#2" Instrument="Duty 3" Volume="7"
				Note Time="138" Value="A#3" Instrument="Duty 3" Volume="7"
				Note Time="143" Value="A#3" Instrument="Duty 3" Volume="7"
				Note Time="148" Value="A#3" Instrument="Duty 3" Volume="7"
				Note Time="153" Value="A#2" Instrument="Duty 3" Volume="7"
				Note Time="158" Value="A#3" Instrument="Duty 3" Volume="7"
				Note Time="163" Value="A#3" Instrument="Duty 3" Volume="7"
				Note Time="168" Value="A#3" Instrument="Duty 3" Volume="7"
				Note Time="174" Value="A#2" Instrument="Duty 3" Volume="7"
				Note Time="179" Value="A#3" Instrument="Duty 3" Volume="7"
				Note Time="184" Value="A#3" Instrument="Duty 3" Volume="7"
				Note Time="189" Value="A#3" Instrument="Duty 3" Volume="7"
				Note Time="194" Value="A#2" Instrument="Duty 3" Volume="7"
				Note Time="199" Value="A#3" Instrument="Duty 3" Volume="7"
				Note Time="204" Value="A#3" Instrument="Duty 3" Volume="7"
				Note Time="209" Value="A#3" Instrument="Duty 3" Volume="7"
				Note Time="215" Value="A#2" Instrument="Duty 3" Volume="7"
				Note Time="220" Value="A#3" Instrument="Duty 3" Volume="7"
				Note Time="225" Value="A#3" Instrument="Duty 3" Volume="7"
				Note Time="230" Value="A#3" Instrument="Duty 3" Volume="7"
				Note Time="235" Value="A#2" Instrument="Duty 3" Volume="7"
				Note Time="240" Value="A#3" Instrument="Duty 3" Volume="7"
				Note Time="245" Value="A#3" Instrument="Duty 3" Volume="7"
				Note Time="250" Value="A#3" Instrument="Duty 3" Volume="7"
				Note Time="255" Value="A#2" Instrument="Duty 3" Volume="7"
			Pattern Name="Pattern 5"
				Note Time="5" Value="A#3" Instrument="Duty 3" Volume="7"
				Note Time="10" Value="A#3" Instrument="Duty 3" Volume="7"
				Note Time="15" Value="A#3" Instrument="Duty 3" Volume="7"
				Note Time="20" Value="A#2" Instrument="Duty 3" Volume="7"
				Note Time="25" Value="A#3" Instrument="Duty 3" Volume="7"
				Note Time="30" Value="A#3" Instrument="Duty 3" Volume="7"
				Note Time="35" Value="A#3" Instrument="Duty 3" Volume="7"
				Note Time="40" Value="A#2" Instrument="Duty 3" Volume="7"
				Note Time="46" Value="A#3" Instrument="Duty 3" Volume="7"
				Note Time="51" Value="A#3" Instrument="Duty 3" Volume="7"
				Note Time="56" Value="A#3" Instrument="Duty 3" Volume="7"
				Note Time="61" Value="A#2" Instrument="Duty 3" Volume="7"
				Note Time="66" Value="A#3" Instrument="Duty 3" Volume="7"
				Note Time="71" Value="A#3" Instrument="Duty 3" Volume="7"
				Note Time="76" Value="A#3" Instrument="Duty 3" Volume="7"
				Note Time="81" Value="A#2" Instrument="Duty 3" Volume="7"
				Note Time="87" Value="A#3" Instrument="Duty 3" Volume="7"
				Note Time="92" Value="A#3" Instrument="Duty 3" Volume="7"
				Note Time="97" Value="A#3" Instrument="Duty 3" Volume="7"
				Note Time="102" Value="A#2" Instrument="Duty 3" Volume="7"
				Note Time="107" Value="A#3" Instrument="Duty 3" Volume="7"
				Note Time="112" Value="A#3" Instrument="Duty 3" Volume="7"
				Note Time="117" Value="A#3" Instrument="Duty 3" Volume="7"
				Note Time="122" Value="A#2" Instrument="Duty 3" Volume="7"
				Note Time="127" Value="A#3" Instrument="Duty 3" Volume="7"
				Note Time="133" Value="A#3" Instrument="Duty 3" Volume="7"
				Note Time="138" Value="A#3" Instrument="Duty 3" Volume="7"
				Note Time="143" Value="A#2" Instrument="Duty 3" Volume="7"
				Note Time="148" Value="A#3" Instrument="Duty 3" Volume="7"
				Note Time="153" Value="A#3" Instrument="Duty 3" Volume="7"
				Note Time="158" Value="A#3" Instrument="Duty 3" Volume="7"
				Note Time="163" Value="A#2" Instrument="Duty 3" Volume="7"
				Note Time="168" Value="A#3" Instrument="Duty 3" Volume="7"
				Note Time="174" Value="A#3" Instrument="Duty 3" Volume="7"
				Note Time="179" Value="A#3" Instrument="Duty 3" Volume="7"
				Note Time="184" Value="A#2" Instrument="Duty 3" Volume="7"
				Note Time="189" Value="A#3" Instrument="Duty 3" Volume="7"
				Note Time="194" Value="A#3" Instrument="Duty 3" Volume="7"
				Note Time="199" Value="A#3" Instrument="Duty 3" Volume="7"
				Note Time="204" Value="A#2" Instrument="Duty 3" Volume="7"
				Note Time="209" Value="A#3" Instrument="Duty 3" Volume="7"
				Note Time="215" Value="A#3" Instrument="Duty 3" Volume="7"
				Note Time="220" Value="A#3" Instrument="Duty 3" Volume="7"
				Note Time="225" Value="A#2" Instrument="Duty 3" Volume="7"
				Note Time="230" Value="A#3" Instrument="Duty 3" Volume="7"
				Note Time="235" Value="A#3" Instrument="Duty 3" Volume="7"
				Note Time="240" Value="A#3" Instrument="Duty 3" Volume="7"
				Note Time="245" Value="A#2" Instrument="Duty 3" Volume="7"
				Note Time="250" Value="A#3" Instrument="Duty 3" Volume="7"
				Note Time="255" Value="A#3" Instrument="Duty 3" Volume="7"
			Pattern Name="Pattern 6"
				Note Time="5" Value="A#3" Instrument="Duty 3" Volume="7"
				Note Time="10" Value="A#2" Instrument="Duty 3" Volume="7"
				Note Time="15" Value="A#3" Instrument="Duty 3" Volume="7"
				Note Time="20" Value="A#3" Instrument="Duty 3" Volume="7"
				Note Time="25" Value="A#3" Instrument="Duty 3" Volume="7"
				Note Time="30" Value="A#2" Instrument="Duty 3" Volume="7"
				Note Time="35" Value="A#3" Instrument="Duty 3" Volume="7"
				Note Time="40" Value="A#3" Instrument="Duty 3" Volume="7"
				Note Time="46" Value="A#3" Instrument="Duty 3" Volume="7"
				Note Time="51" Value="A#2" Instrument="Duty 3" Volume="7"
				Note Time="56" Value="A#3" Instrument="Duty 3" Volume="7"
				Note Time="61" Value="A#3" Instrument="Duty 3" Volume="7"
				Note Time="66" Value="A#3" Instrument="Duty 3" Volume="7"
				Note Time="71" Value="A#2" Instrument="Duty 3" Volume="7"
				Note Time="76" Value="A#3" Instrument="Duty 3" Volume="7"
				Note Time="81" Value="A#3" Instrument="Duty 3" Volume="7"
				Note Time="87" Value="A#3" Instrument="Duty 3" Volume="7"
				Note Time="92" Value="A#2" Instrument="Duty 3" Volume="7"
				Note Time="97" Value="A#3" Instrument="Duty 3" Volume="7"
				Note Time="102" Value="A#3" Instrument="Duty 3" Volume="7"
				Note Time="107" Value="A#3" Instrument="Duty 3" Volume="7"
				Note Time="112" Value="A#2" Instrument="Duty 3" Volume="7"
				Note Time="117" Value="A#3" Instrument="Duty 3" Volume="7"
				Note Time="122" Value="A#3" Instrument="Duty 3" Volume="7"
				Note Time="127" Value="A#3" Instrument="Duty 3" Volume="7"
				Note Time="133" Value="A#2" Instrument="Duty 3" Volume="7"
				Note Time="138" Value="A#3" Instrument="Duty 3" Volume="7"
				Note Time="143" Value="A#3" Instrument="Duty 3" Volume="7"
				Note Time="148" Value="A#3" Instrument="Duty 3" Volume="7"
				Note Time="153" Value="A#2" Instrument="Duty 3" Volume="7"
				Note Time="158" Value="A#3" Instrument="Duty 3" Volume="7"
				Note Time="163" Value="A#3" Instrument="Duty 3" Volume="7"
				Note Time="168" Value="A#3" Instrument="Duty 3" Volume="7"
				Note Time="174" Value="A#2" Instrument="Duty 3" Volume="7"
				Note Time="179" Value="A#3" Instrument="Duty 3" Volume="7"
				Note Time="184" Value="A#3" Instrument="Duty 3" Volume="7"
				Note Time="189" Value="A#3" Instrument="Duty 3" Volume="7"
				Note Time="194" Value="A#2" Instrument="Duty 3" Volume="7"
				Note Time="199" Value="A#3" Instrument="Duty 3" Volume="7"
				Note Time="204" Value="A#3" Instrument="Duty 3" Volume="7"
				Note Time="209" Value="A#3" Instrument="Duty 3" Volume="7"
				Note Time="215" Value="A#2" Instrument="Duty 3" Volume="7"
				Note Time="220" Value="A#3" Instrument="Duty 3" Volume="7"
				Note Time="225" Value="A#3" Instrument="Duty 3" Volume="7"
				Note Time="230" Value="A#3" Instrument="Duty 3" Volume="7"
				Note Time="235" Value="A#2" Instrument="Duty 3" Volume="7"
				Note Time="240" Value="A#3" Instrument="Duty 3" Volume="7"
				Note Time="245" Value="A#3" Instrument="Duty 3" Volume="7"
				Note Time="250" Value="A#3" Instrument="Duty 3" Volume="7"
				Note Time="255" Value="A#2" Instrument="Duty 3" Volume="7"
			Pattern Name="Pattern 7"
				Note Time="5" Value="A#3" Instrument="Duty 3" Volume="7"
				Note Time="10" Value="A#3" Instrument="Duty 3" Volume="7"
				Note Time="15" Value="A#3" Instrument="Duty 3" Volume="7"
				Note Time="20" Value="A#2" Instrument="Duty 3" Volume="7"
				Note Time="25" Value="A#3" Instrument="Duty 3" Volume="7"
				Note Time="30" Value="A#3" Instrument="Duty 3" Volume="7"
				Note Time="35" Value="A#3" Instrument="Duty 3" Volume="7"
				Note Time="40" Value="A#2" Instrument="Duty 3" Volume="7"
				Note Time="46" Value="A#3" Instrument="Duty 3" Volume="7"
				Note Time="51" Value="A#3" Instrument="Duty 3" Volume="7"
				Note Time="56" Value="A#3" Instrument="Duty 3" Volume="7"
				Note Time="61" Value="A#2" Instrument="Duty 3" Volume="7"
				Note Time="66" Value="A#3" Instrument="Duty 3" Volume="7"
				Note Time="71" Value="A#3" Instrument="Duty 3" Volume="7"
				Note Time="76" Value="A#3" Instrument="Duty 3" Volume="7"
				Note Time="81" Value="A#2" Instrument="Duty 3" Volume="7"
				Note Time="87" Value="A#3" Instrument="Duty 3" Volume="7"
				Note Time="92" Value="A#3" Instrument="Duty 3" Volume="7"
				Note Time="97" Value="A#3" Instrument="Duty 3" Volume="7"
				Note Time="102" Value="A#2" Instrument="Duty 3" Volume="7"
				Note Time="107" Value="A#3" Instrument="Duty 3" Volume="7"
				Note Time="112" Value="A#3" Instrument="Duty 3" Volume="7"
				Note Time="117" Value="A#3" Instrument="Duty 3" Volume="7"
				Note Time="122" Value="A#2" Instrument="Duty 3" Volume="7"
				Note Time="127" Value="A#3" Instrument="Duty 3" Volume="7"
				Note Time="133" Value="A#3" Instrument="Duty 3" Volume="7"
				Note Time="138" Value="A#3" Instrument="Duty 3" Volume="7"
				Note Time="143" Value="A#2" Instrument="Duty 3" Volume="7"
				Note Time="148" Value="A#3" Instrument="Duty 3" Volume="7"
				Note Time="153" Value="A#3" Instrument="Duty 3" Volume="7"
				Note Time="158" Value="A#3" Instrument="Duty 3" Volume="7"
				Note Time="163" Value="A#2" Instrument="Duty 3" Volume="7"
				Note Time="168" Value="A#3" Instrument="Duty 3" Volume="7"
				Note Time="174" Value="A#3" Instrument="Duty 3" Volume="7"
				Note Time="179" Value="A#3" Instrument="Duty 3" Volume="7"
				Note Time="184" Value="A#2" Instrument="Duty 3" Volume="7"
				Note Time="189" Value="A#3" Instrument="Duty 3" Volume="7"
				Note Time="194" Value="A#3" Instrument="Duty 3" Volume="7"
				Note Time="199" Value="A#3" Instrument="Duty 3" Volume="7"
				Note Time="204" Value="A#2" Instrument="Duty 3" Volume="7"
				Note Time="209" Value="A#3" Instrument="Duty 3" Volume="7"
				Note Time="215" Value="A#3" Instrument="Duty 3" Volume="7"
				Note Time="220" Value="A#3" Instrument="Duty 3" Volume="7"
				Note Time="225" Value="A#2" Instrument="Duty 3" Volume="7"
				Note Time="230" Value="A#3" Instrument="Duty 3" Volume="7"
				Note Time="235" Value="A#3" Instrument="Duty 3" Volume="7"
				Note Time="240" Value="A#3" Instrument="Duty 3" Volume="7"
				Note Time="245" Value="A#2" Instrument="Duty 3" Volume="7"
				Note Time="250" Value="A#3" Instrument="Duty 3" Volume="7"
				Note Time="255" Value="A#3" Instrument="Duty 3" Volume="7"
			Pattern Name="Pattern 8"
				Note Time="5" Value="A#3" Instrument="Duty 3" Volume="7"
				Note Time="10" Value="A#2" Instrument="Duty 3" Volume="7"
				Note Time="15" Value="A#3" Instrument="Duty 3" Volume="7"
				Note Time="20" Value="A#3" Instrument="Duty 3" Volume="7"
				Note Time="25" Value="A#3" Instrument="Duty 3" Volume="7"
				Note Time="30" Value="A#2" Instrument="Duty 3" Volume="7"
				Note Time="35" Value="A#3" Instrument="Duty 3" Volume="7"
				Note Time="40" Value="A#3" Instrument="Duty 3" Volume="7"
				Note Time="46" Value="A#3" Instrument="Duty 3" Volume="7"
				Note Time="51" Value="A#2" Instrument="Duty 3" Volume="7"
				Note Time="56" Value="A#3" Instrument="Duty 3" Volume="7"
				Note Time="61" Value="A#3" Instrument="Duty 3" Volume="7"
				Note Time="66" Value="A#3" Instrument="Duty 3" Volume="7"
				Note Time="71" Value="A#2" Instrument="Duty 3" Volume="7"
				Note Time="76" Value="A#3" Instrument="Duty 3" Volume="7"
				Note Time="81" Value="A#3" Instrument="Duty 3" Volume="7"
				Note Time="87" Value="A#3" Instrument="Duty 3" Volume="7"
				Note Time="92" Value="A#2" Instrument="Duty 3" Volume="7"
				Note Time="97" Value="A#3" Instrument="Duty 3" Volume="7"
				Note Time="102" Value="A#3" Instrument="Duty 3" Volume="7"
				Note Time="107" Value="A#3" Instrument="Duty 3" Volume="7"
				Note Time="112" Value="A#2" Instrument="Duty 3" Volume="7"
				Note Time="117" Value="A#3" Instrument="Duty 3" Volume="7"
				Note Time="122" Value="A#3" Instrument="Duty 3" Volume="7"
				Note Time="127" Value="A#3" Instrument="Duty 3" Volume="7"
				Note Time="133" Value="A#2" Instrument="Duty 3" Volume="7"
				Note Time="138" Value="A#3" Instrument="Duty 3" Volume="7"
				Note Time="143" Value="A#3" Instrument="Duty 3" Volume="7"
				Note Time="148" Value="A#3" Instrument="Duty 3" Volume="7"
				Note Time="153" Value="A#2" Instrument="Duty 3" Volume="7"
				Note Time="158" Value="A#3" Instrument="Duty 3" Volume="7"
				Note Time="163" Value="A#3" Instrument="Duty 3" Volume="7"
				Note Time="168" Value="A#3" Instrument="Duty 3" Volume="7"
				Note Time="174" Value="A#2" Instrument="Duty 3" Volume="7"
				Note Time="179" Value="A#3" Instrument="Duty 3" Volume="7"
				Note Time="184" Value="A#3" Instrument="Duty 3" Volume="7"
				Note Time="189" Value="A#3" Instrument="Duty 3" Volume="7"
				Note Time="194" Value="A#2" Instrument="Duty 3" Volume="7"
				Note Time="199" Value="A#3" Instrument="Duty 3" Volume="7"
				Note Time="204" Value="A#3" Instrument="Duty 3" Volume="7"
				Note Time="209" Value="A#3" Instrument="Duty 3" Volume="7"
				Note Time="215" Value="A#2" Instrument="Duty 3" Volume="7"
				Note Time="220" Value="A#3" Instrument="Duty 3" Volume="7"
				Note Time="225" Value="A#3" Instrument="Duty 3" Volume="7"
				Note Time="230" Value="A#3" Instrument="Duty 3" Volume="7"
				Note Time="235" Value="A#2" Instrument="Duty 3" Volume="7"
				Note Time="240" Value="A#3" Instrument="Duty 3" Volume="7"
				Note Time="245" Value="A#3" Instrument="Duty 3" Volume="7"
				Note Time="250" Value="A#3" Instrument="Duty 3" Volume="7"
				Note Time="255" Value="A#2" Instrument="Duty 3" Volume="7"
			Pattern Name="Pattern 9"
				Note Time="5" Value="A#3" Instrument="Duty 3" Volume="7"
				Note Time="10" Value="A#3" Instrument="Duty 3" Volume="7"
				Note Time="15" Value="A#3" Instrument="Duty 3" Volume="7"
				Note Time="20" Value="A#2" Instrument="Duty 3" Volume="7"
				Note Time="25" Value="A#3" Instrument="Duty 3" Volume="7"
				Note Time="30" Value="A#3" Instrument="Duty 3" Volume="7"
				Note Time="35" Value="A#3" Instrument="Duty 3" Volume="7"
				Note Time="40" Value="A#2" Instrument="Duty 3" Volume="7"
				Note Time="46" Value="A#3" Instrument="Duty 3" Volume="7"
				Note Time="51" Value="A#3" Instrument="Duty 3" Volume="7"
				Note Time="56" Value="A#3" Instrument="Duty 3" Volume="7"
				Note Time="61" Value="A#2" Instrument="Duty 3" Volume="7"
				Note Time="66" Value="A#3" Instrument="Duty 3" Volume="7"
				Note Time="71" Value="A#3" Instrument="Duty 3" Volume="7"
				Note Time="76" Value="A#3" Instrument="Duty 3" Volume="7"
				Note Time="81" Value="A#2" Instrument="Duty 3" Volume="7"
				Note Time="87" Value="A#3" Instrument="Duty 3" Volume="7"
				Note Time="92" Value="A#3" Instrument="Duty 3" Volume="7"
				Note Time="97" Value="A#3" Instrument="Duty 3" Volume="7"
				Note Time="102" Value="A#2" Instrument="Duty 3" Volume="7"
				Note Time="107" Value="A#3" Instrument="Duty 3" Volume="7"
				Note Time="112" Value="A#3" Instrument="Duty 3" Volume="7"
				Note Time="117" Value="A#3" Instrument="Duty 3" Volume="7"
				Note Time="122" Value="A#2" Instrument="Duty 3" Volume="7"
				Note Time="128" Value="A#3" Instrument="Duty 3" Volume="7"
				Note Time="133" Value="A#3" Instrument="Duty 3" Volume="7"
				Note Time="138" Value="A#3" Instrument="Duty 3" Volume="7"
				Note Time="143" Value="A#2" Instrument="Duty 3" Volume="7"
				Note Time="148" Value="A#3" Instrument="Duty 3" Volume="7"
				Note Time="153" Value="A#3" Instrument="Duty 3" Volume="7"
				Note Time="158" Value="A#3" Instrument="Duty 3" Volume="7"
				Note Time="163" Value="A#2" Instrument="Duty 3" Volume="7"
				Note Time="168" Value="A#3" Instrument="Duty 3" Volume="7"
				Note Time="174" Value="A#3" Instrument="Duty 3" Volume="7"
				Note Time="179" Value="A#3" Instrument="Duty 3" Volume="7"
				Note Time="184" Value="A#2" Instrument="Duty 3" Volume="7"
				Note Time="189" Value="A#3" Instrument="Duty 3" Volume="7"
				Note Time="194" Value="A#3" Instrument="Duty 3" Volume="7"
				Note Time="199" Value="A#3" Instrument="Duty 3" Volume="7"
				Note Time="200" Value="Stop"
			PatternInstance Time="0" Pattern="Pattern 1"
			PatternInstance Time="1" Pattern="Pattern 2"
			PatternInstance Time="2" Pattern="Pattern 3"
			PatternInstance Time="3" Pattern="Pattern 4"
			PatternInstance Time="4" Pattern="Pattern 5"
			PatternInstance Time="5" Pattern="Pattern 6"
			PatternInstance Time="6" Pattern="Pattern 7"
			PatternInstance Time="7" Pattern="Pattern 8"
			PatternInstance Time="8" Pattern="Pattern 9"
		Channel Type="DPCM"
